<svg xmlns="http://www.w3.org/2000/svg" width="1466" height="314" viewBox="0 0 1466 314"><pattern id="diagonal-texture" patternUnits="userSpaceOnUse" width="6" height="6"><style>.diagonal-1{fill:#242424}</style><path d="M0 0h6v6H0z"/><path class="diagonal-1" d="M5 0h1v1H5zM4 1h1v1H4zM3 2h1v1H3zM2 3h1v1H2zM1 4h1v1H1zM0 5h1v1H0zM4.5.5H5V1h-.5zM5 1h.5v.5H5zM4 2h.5v.5H4zm-.5-.5H4V2h-.5zm-1 1H3V3h-.5zM3 3h.5v.5H3zM2 4h.5v.5H2zM1 5h.5v.5H1zM0 0h.5v.5H0z"/>/&gt;<path class="diagonal-1" d="M5.5 5.5H6V6h-.5zm-4-2H2V4h-.5zm-1 1H1V5H.5z"/></pattern><style/><path d="M71.733 93.673h10.492l3.6-24.581h12.408V58.72H87.321l2.518-16.967h12.231V31.32H91.338L95 6.379H84.5L80.846 31.32h-8.034l3.657-24.941H66.037L62.38 31.32H49.61v10.432h11.271L58.363 58.72H45.892v10.372h10.972l-3.6 24.581h10.495L67.3 69.092h8.03zm-.42-51.921h8.034L76.829 58.72H68.8zm169.141-14.528a12.784 12.784 0 0 0-2.318.194 5.7 5.7 0 0 0-1.816.632 3.373 3.373 0 0 0-1.2 1.136 3.211 3.211 0 0 0-.437 1.734 3.151 3.151 0 0 0 .324 1.362 3.418 3.418 0 0 0 1.006 1.216 5.294 5.294 0 0 0 1.719.859 8.155 8.155 0 0 0 2.432.324 7.4 7.4 0 0 0 4.232-.956 2.768 2.768 0 0 0 1.346-2.286h10.929a8.765 8.765 0 0 1-1.378 4.961 11.215 11.215 0 0 1-3.616 3.422 17.231 17.231 0 0 1-5.06 1.994 25.379 25.379 0 0 1-5.707.648 30.3 30.3 0 0 1-6.729-.713 18.834 18.834 0 0 1-5.432-2.076 11.146 11.146 0 0 1-3.632-3.323 7.764 7.764 0 0 1-1.33-4.46 7.559 7.559 0 0 1 1.735-5.042 10.5 10.5 0 0 1 4.978-3.1 11.114 11.114 0 0 1-4.475-3.129 6.593 6.593 0 0 1-1.622-4.3 7.965 7.965 0 0 1 1.232-4.41 9.947 9.947 0 0 1 3.422-3.194 17.851 17.851 0 0 1 5.221-1.946 31.033 31.033 0 0 1 6.632-.665 23.009 23.009 0 0 1 5.886.73 15.64 15.64 0 0 1 4.832 2.124 10.97 10.97 0 0 1 3.275 3.389 8.577 8.577 0 0 1 1.216 4.557h-10.931a2.413 2.413 0 0 0-1.41-2.287 7.774 7.774 0 0 0-3.584-.729 7.192 7.192 0 0 0-2.254.309 4.609 4.609 0 0 0-1.508.794 2.909 2.909 0 0 0-.843 1.1 3.143 3.143 0 0 0-.26 1.232 2.609 2.609 0 0 0 1.379 2.335 7.14 7.14 0 0 0 3.745.844h5.675v6.713zM151.247 6v14.334h-.836a24.255 24.255 0 0 0-8.719 1.464 18.041 18.041 0 0 0-6.539 4.239 21.806 21.806 0 0 0-4.419 6.748 32.47 32.47 0 0 0-2.3 8.987 18.417 18.417 0 0 1 5.912-4.508 17.364 17.364 0 0 1 7.644-1.643 17.136 17.136 0 0 1 9.077 2.358 20.062 20.062 0 0 1 6.479 6.391 30.163 30.163 0 0 1 3.882 9.405 48.988 48.988 0 0 1 1.284 11.406 37.641 37.641 0 0 1-1.792 11.794 28.964 28.964 0 0 1-5.076 9.465 23.385 23.385 0 0 1-18.513 8.6 23.258 23.258 0 0 1-10.869-2.508 23.949 23.949 0 0 1-8.241-7.077A33.515 33.515 0 0 1 113 74.5a51.278 51.278 0 0 1-1.821-14.093v-6.69a70.268 70.268 0 0 1 2.508-19.349A44.916 44.916 0 0 1 121 19.289 33.387 33.387 0 0 1 132.854 9.5 35.841 35.841 0 0 1 148.978 6zm-14.512 43.6a7.63 7.63 0 0 0-5.4 2.03 12.536 12.536 0 0 0-3.255 5.017v6.091q0 9.2 2.449 13.735t6.449 4.539a6.338 6.338 0 0 0 3.7-1.165 9.509 9.509 0 0 0 2.836-3.255 18.082 18.082 0 0 0 1.792-4.956 29.359 29.359 0 0 0 .627-6.271 28.8 28.8 0 0 0-.657-6.36 17.536 17.536 0 0 0-1.881-4.986 9.944 9.944 0 0 0-2.926-3.254 6.473 6.473 0 0 0-3.734-1.165zM208.222 6v14.334h-.836a24.255 24.255 0 0 0-8.719 1.464 18.041 18.041 0 0 0-6.539 4.239 21.806 21.806 0 0 0-4.419 6.748 32.47 32.47 0 0 0-2.3 8.987 18.417 18.417 0 0 1 5.912-4.508 17.364 17.364 0 0 1 7.644-1.643 17.136 17.136 0 0 1 9.077 2.358 20.062 20.062 0 0 1 6.479 6.391 30.163 30.163 0 0 1 3.882 9.405 48.988 48.988 0 0 1 1.284 11.406 37.641 37.641 0 0 1-1.787 11.796 28.964 28.964 0 0 1-5.076 9.465 23.385 23.385 0 0 1-18.513 8.6 23.258 23.258 0 0 1-10.869-2.508 23.949 23.949 0 0 1-8.241-7.077 33.515 33.515 0 0 1-5.228-10.957 51.278 51.278 0 0 1-1.821-14.093v-6.69a70.268 70.268 0 0 1 2.508-19.349 44.916 44.916 0 0 1 7.315-15.079A33.387 33.387 0 0 1 189.829 9.5 35.841 35.841 0 0 1 205.953 6zm-14.511 43.6a7.63 7.63 0 0 0-5.4 2.03 12.536 12.536 0 0 0-3.255 5.017v6.091q0 9.2 2.449 13.735t6.449 4.539a6.338 6.338 0 0 0 3.7-1.165 9.509 9.509 0 0 0 2.836-3.255 18.082 18.082 0 0 0 1.792-4.956 29.359 29.359 0 0 0 .627-6.271A28.8 28.8 0 0 0 202.25 59a17.536 17.536 0 0 0-1.881-4.986 9.944 9.944 0 0 0-2.926-3.254 6.473 6.473 0 0 0-3.732-1.16z"/></svg>