<svg xmlns="http://www.w3.org/2000/svg" width="1466" height="314" viewBox="0 0 1466 314"><pattern id="diagonal-texture" patternUnits="userSpaceOnUse" width="6" height="6"><style>.diagonal-1{fill:#242424}</style><path d="M0 0h6v6H0z"/><path class="diagonal-1" d="M5 0h1v1H5zM4 1h1v1H4zM3 2h1v1H3zM2 3h1v1H2zM1 4h1v1H1zM0 5h1v1H0zM4.5.5H5V1h-.5zM5 1h.5v.5H5zM4 2h.5v.5H4zm-.5-.5H4V2h-.5zm-1 1H3V3h-.5zM3 3h.5v.5H3zM2 4h.5v.5H2zM1 5h.5v.5H1zM0 0h.5v.5H0z"/>/&gt;<path class="diagonal-1" d="M5.5 5.5H6V6h-.5zm-4-2H2V4h-.5zm-1 1H1V5H.5z"/></pattern><path d="M225.526 11.016v294.073h61.545V193.131h3.571l53.983 111.958h69.947l-62.6-117.419c36.129-11.973 57.344-42.01 57.344-83.6 0-57.764-36.549-93.053-95.784-93.053zm88.432 56.5c18.064 0 32.558 11.553 32.558 36.549 0 25.206-14.284 36.759-32.558 36.759h-26.887V67.52zm167.779-56.5h-61.545v294.073h61.545zM599.972 6.6c-66.372 0-106.707 53.778-106.707 151.452S533.6 309.5 599.972 309.5c42.851 0 73.938-23.316 89.482-64.276l-51.463-26.467c-8.612 20.8-20.8 30.668-37.809 30.668-25.416 0-43.271-27.1-43.271-91.373 0-62.6 16.384-91.373 43.271-91.373 17.014 0 29.2 10.082 37.179 30.668L690.5 72.981C675.591 30.341 642.822 6.6 599.972 6.6zm156.015 4.416h-61.545v294.073h61.545v-120.15H829.3v120.15h61.545V11.016H829.3v117.209h-73.313zm320.901 0h-181.7V67.73h60.075v237.359h61.545V67.73h60.075zm162.535 238.199H1142.8v-64.7h90.742v-55.87H1142.8V66.89h97.464V11.016h-159.01v294.073h158.169zm14.867-238.199v294.073h61.545V193.131h3.571l53.984 111.958h69.947l-62.6-117.419c36.129-11.973 57.344-42.01 57.344-83.6 0-57.764-36.549-93.053-95.784-93.053zm88.432 56.5c18.064 0 32.558 11.553 32.558 36.549 0 25.206-14.284 36.759-32.558 36.759h-26.887V67.52z" fill="url(#diagonal-texture)"/></svg>