<svg xmlns="http://www.w3.org/2000/svg" width="670" height="670" viewBox="0 0 670 670"><linearGradient x1="0%" x2="0%" y1="0%" y2="100%" id="a"><stop offset="0%" stop-color="#438eb1"/><stop offset="100%" stop-color="#045a83"/></linearGradient><g fill="url(#a)"><path d="M173.252 182.843c13.668-.989 17.264 7.014 16.9 13.757 3.777-4.406 7.014-2.428 6.474.36-.36 1.978-3.687 9.8-3.687 9.8s7.643-5.575 8.362-6.025c2.068-1.349 4.946-1.259 3.777 3.417 5.575-6.025 19.332-4.316 22.839 4.046 5.575-8.722 21.76-13.937 30.213-3.417-.9-13.038-8.093-29.4-16.455-35.248l.629 3.777c-1.079 6.564-19.962 17.354-30.213 14.747 2.608-1.888 4.586-6.384 7.1-7.553-2.608-1.349-8.722 2.608-8.722 2.608l-1.978-1.079c.18-.9.09-7.193-1.978-9.082.09 2.338-2.967 7.193-3.237 10.251-10.97-7.193-7.823-29.044-6.924-31.561.45-.27 3.687-1.888 3.687-1.888l-1.708-.45a63.97 63.97 0 0 0-51.253 15.736c8.093-3.327 28.054 2.967 26.166 17.8z"/><path d="M533.914 440.729l-.45-4.226-6.114-10.341h-3.327l-.629-10.341-1.708-3.507-6.294-.629-3.147-6.294-12.049-4.586-14.3-35.068-7.643 19.6-7.283 11.24h-2.158l-1.978 7.733-6.114-20.681h-4.856l-3.057-5.305h-2.877v-1.349h.989l4.766-7.373v-19.151h5.4l-1.259-3.777 1.529-2.518-4.316-17.8-1.619-2.518.18-3.147-17.084-62.763v-33H436.8l-1.8.18v33.45l-2.787 11.33.719 4.406-2.967 4.586-11.865 43.876-23.289-.989V279.6l-2.787-.36-11.689-18.7 1.079-19.242 4.766-5.575h2.7v-21.49h-2.428v-10.79h6.114l-24.368-73.913v-5.845l-1.888-6.294-1.619-1.8v13.578l-24.461 74.176h6.384v10.79H344.1v2.965h-16.9l.27-1.708 3.237-3.507v-11.42h6.744l-16.815-46.038V137.7l-3.507 1.079v16.275l-8.542 26.166.36.989-2.518 4.046-6.114 14.3h6.744v11.42l3.237 3.507 2.877 18.7h1.529l1.079 13.668.09.989.9 10.61h1.429v-10.61h3.866l1.079-14.657h1.619l.9-6.114 4.586-5.125c2.787-.09 5.755-.09 8.542 0l5.4 6.025v6.834h2.428l4.766 5.575 1.079 19.242-12.678 20.322-1.8 1.169v11.24h-3.147v-1.8h-2.787v1.8h-2.433v-2.877h-2.787v2.877h-2.518v-1.169h-2.787v1.169h-2.518v-2.877h-2.787v2.877H313.7v-1.8h-2.787v1.8H308.4v-.719h-2.787v.719h-2.518v-1.8h-2.787v1.8h-2.518v-1.8H295v1.8h-2.518v-2.877h-2.428v2.877h-2.248l-9.981-40.643-1.349-2.967.09-2.068-8.362-27.695v-27.962h-1.529l-1.439 1.708v27.785l-13.668 63.033.45.09-2.608 8.9-4.946 20.232h4.676v21.041l4.766 5.035h-7.463l2.787 8.362.45 21.76-5.935 2.967-1.259 23.379h-9.621l-1.349-20.142.989-.989v-2.156h3.777v-22.48l-3.057-4.5-.629-3.687h-.989l-5.663-26.253-.809-.09-.54-6.474-4.855-23.916v-15.826l-1.619-6.744h-.54v22.84l-6.473 32.01-.18 4.5-1.169 1.888-3.959 17.98h-1.439l-.809 3.777-2.608 4.406v22.48h3.866v14.387l1.259 3.147v18.973l-2.608.27-5.305 2.787-6.564.36-1.708.989-1.079 2.248-14.117 2.428-4.316-.989-5.935 1.8-3.687-.18-2.7 1.439.18 6.924-10.61 21.311-7.283 1.439-2.428 10.88-1.978.719-4.131 16.811 2.967 3.417-1.439 13.128 1.169-1.079 1.439.18c-.809 7.463 4.5 16.545 4.5 16.545-1.888-7.823.719-24.817 4.946-28.324-3.956 5.845-2.158 16.9-2.158 16.9s.629-6.384 1.888-7.373l.719.18a3.924 3.924 0 0 1 1.439-1.529c1.619-.54 2.068 6.654 2.068 6.654a27.956 27.956 0 0 0 .54-3.956c0 3.956-.36 8.722 1.439 12.319 0 0-.629-4.5.809-7.283 1.439-2.877 2.428-4.5 2.428-4.5l-.18 3.777 2.518 2.608 1.079 1.888s3.866 11.15 2.787 13.757c3.057-3.956 4.766-24.1 4.766-24.1l3.777 3.777 1.8 13.668 1.8 5.845.809.45 2.428 7.283c0-2.518-.27-12.229-.27-12.229s3.866 25.267 8.542 35.338c-1.978-4.226-2.518-25.537-2.518-25.537s.809 8.542 1.619 9.711l3.687-15.556 4.766-5.575 1.888-17.354 3.417-2.158 1.439-11.42 8.272 23.828 4.856 3.687 4.316 16.815 5.215 4.226 1.619-.809 2.518-11.42 8.722 12.768 4.946 3.327 12.229-1.8 13.578 6.025 3.6-.539 4.406 1.888 7.463 17.984 5.035-10.52 2.338 2.877 2.608.45 13.4-4.856 4.586.539 7.014-5.755.719 2.608L336 536.132l21.221-12.049 2.787 3.057h8.542s7.643-17.8 7.733-17.8l3.237-.27 9.172-4.226 5.215 4.676 22.3-12.229 4.136 8.272 1.978-3.057 3.057 11.869 8.272-17.8h7.65l13.038-18.523.719-5.125.9-.629 1.708.36 1.079-3.327 7.553-4.5h3.327l1.169.809 1.439 1.439 6.564.989 7.1 7.373 3.687-2.787 3.687-8.272 2.428-.629-1.259-9.172s7.193 2.608 8.272 17.984 2.787 25 2.787 25a145.443 145.443 0 0 0 6.744-29.763c-.45 4.676 1.259 10.97 3.327 12.319-1.708-7.553 4.226-12.858 3.327-22.3a24.067 24.067 0 0 1 1.169 13.4 12.414 12.414 0 0 0 2.787-8 13.46 13.46 0 0 1 3.687 8c1.888-3.956.989-10.341 3.417-14.3a10.483 10.483 0 0 0 .45 5.935 28.33 28.33 0 0 1 8.093-15.106zM290.506 304.053l4.676-5.125c10.52-.809 26.975-.27 37.046.629l5.845 6.564V317h-12.5l-1.8 1.708-.9-1.708h-34.615v-3.327h4.676zm22.929 70.856l-2.608-10.431h-18.433l-1.079-9.351h-2.608l-.45-7.1 2.7-8.362h-7.463l4.766-5.125v-3.777c1.619-2.068 3.866-4.766 5.575-6.654 9.8-.9 25.717-1.529 36.237-1.888l7.913 8.812v9.531h-2.068l-3.956 2.248v7.014l-3.057 3.327h-.18v.18l-.09.09v1.708l.09.18v21.58l-4.046-.45zm93.065 3.237l-2.967-3.327-.36-3.507-5.573-2.612-2.158-13.488 1.8-.9 2.7-10.88-2.428-2.7h-2.7v-3.507l8.632-9.531c2.608-.18 5.4-.27 8-.27l4.136 4.586-5.035 18.433h7.283V369.6l4.766 7.373h.989v1.259z"/></g></svg>