<svg width="30" height="19" viewBox="0 0 30 19" fill="none" xmlns="http://www.w3.org/2000/svg">
<g opacity="0.7">
<path fill-rule="evenodd" clip-rule="evenodd" d="M0.999975 2H28.475V1H0.999975V2ZM0.999975 9.60563H28.475V8.60563H0.999975V9.60563ZM22.413 17.6866H0.999975V16.6866H22.413V17.6866Z" fill="white"/>
<path d="M28.475 2H29.475V3H28.475V2ZM0.999975 2V3H-2.47955e-05V2H0.999975ZM28.475 1V0H29.475V1H28.475ZM0.999975 1H-2.47955e-05V0H0.999975V1ZM28.475 9.60563H29.475V10.6056H28.475V9.60563ZM0.999975 9.60563V10.6056H-2.47955e-05V9.60563H0.999975ZM28.475 8.60563V7.60563H29.475V8.60563H28.475ZM0.999975 8.60563H-2.47955e-05V7.60563H0.999975V8.60563ZM0.999975 17.6866V18.6866H-2.47955e-05V17.6866H0.999975ZM22.413 17.6866H23.413V18.6866H22.413V17.6866ZM0.999975 16.6866H-2.47955e-05V15.6866H0.999975V16.6866ZM22.413 16.6866V15.6866H23.413V16.6866H22.413ZM28.475 3H0.999975V1H28.475V3ZM29.475 1V2H27.475V1H29.475ZM0.999975 0H28.475V2H0.999975V0ZM-2.47955e-05 2V1H1.99998V2H-2.47955e-05ZM28.475 10.6056H0.999975V8.60563H28.475V10.6056ZM29.475 8.60563V9.60563H27.475V8.60563H29.475ZM0.999975 7.60563H28.475V9.60563H0.999975V7.60563ZM-2.47955e-05 9.60563V8.60563H1.99998V9.60563H-2.47955e-05ZM0.999975 16.6866H22.413V18.6866H0.999975V16.6866ZM1.99998 16.6866V17.6866H-2.47955e-05V16.6866H1.99998ZM22.413 17.6866H0.999975V15.6866H22.413V17.6866ZM21.413 17.6866V16.6866H23.413V17.6866H21.413Z" fill="white"/>
</g>
</svg>
