<svg xmlns="http://www.w3.org/2000/svg" width="1466" height="260" viewBox="0 0 1466 260"><pattern id="diagonal-texture" patternUnits="userSpaceOnUse" width="6" height="6"><style>.diagonal-1{fill:#242424}</style><path d="M0 0h6v6H0z"/><path class="diagonal-1" d="M5 0h1v1H5zM4 1h1v1H4zM3 2h1v1H3zM2 3h1v1H2zM1 4h1v1H1zM0 5h1v1H0zM4.5.5H5V1h-.5zM5 1h.5v.5H5zM4 2h.5v.5H4zm-.5-.5H4V2h-.5zm-1 1H3V3h-.5zM3 3h.5v.5H3zM2 4h.5v.5H2zM1 5h.5v.5H1zM0 0h.5v.5H0z"/>/&gt;<path class="diagonal-1" d="M5.5 5.5H6V6h-.5zm-4-2H2V4h-.5zm-1 1H1V5H.5z"/></pattern><path d="M1275.233 98.673h10.492l3.6-24.581h12.411V63.72h-10.912l2.518-16.967h12.231V36.32h-10.732l3.657-24.941H1288l-3.657 24.941h-8.034l3.657-24.941h-10.432l-3.654 24.941h-12.77v10.432h11.272l-2.518 16.967h-12.471v10.373h10.972l-3.6 24.581h10.492l3.537-24.581h8.034zm-.42-51.921h8.034l-2.518 16.967h-8.029zm75.169-36.272a35.971 35.971 0 0 0-16.188 3.507 33.5 33.5 0 0 0-11.9 9.833 45.092 45.092 0 0 0-7.345 15.139 70.557 70.557 0 0 0-2.518 19.425V65.1a51.484 51.484 0 0 0 1.829 14.149 33.656 33.656 0 0 0 5.246 11 24.034 24.034 0 0 0 8.274 7.1 23.348 23.348 0 0 0 10.912 2.518 23.48 23.48 0 0 0 18.586-8.633 29.086 29.086 0 0 0 5.1-9.5 37.789 37.789 0 0 0 1.8-11.841 49.179 49.179 0 0 0-1.289-11.451 30.286 30.286 0 0 0-3.9-9.443 20.137 20.137 0 0 0-6.505-6.415 17.2 17.2 0 0 0-9.113-2.368 17.437 17.437 0 0 0-7.674 1.649 18.5 18.5 0 0 0-5.936 4.527 32.6 32.6 0 0 1 2.308-9.023 21.888 21.888 0 0 1 4.437-6.775 18.111 18.111 0 0 1 6.565-4.257 24.361 24.361 0 0 1 8.753-1.469h.839V10.48zm-8.543 44.936a9.982 9.982 0 0 1 2.938 3.268 17.59 17.59 0 0 1 1.889 5.006 28.9 28.9 0 0 1 .659 6.385 29.471 29.471 0 0 1-.63 6.3 18.169 18.169 0 0 1-1.8 4.976 9.553 9.553 0 0 1-2.848 3.268 6.362 6.362 0 0 1-3.717 1.169q-4.017 0-6.475-4.557T1329 67.437v-6.116a12.581 12.581 0 0 1 3.268-5.036 7.659 7.659 0 0 1 5.426-2.038 6.5 6.5 0 0 1 3.744 1.169zm44.381 5.546h8.214a9.429 9.429 0 0 1 7.464 3.028q2.667 3.028 2.668 9.923a16.909 16.909 0 0 1-.659 4.886 11.214 11.214 0 0 1-1.889 3.747 8.377 8.377 0 0 1-2.968 2.4 8.985 8.985 0 0 1-3.957.839 7.381 7.381 0 0 1-3.507-.839 8.356 8.356 0 0 1-2.728-2.308 11.42 11.42 0 0 1-1.8-3.477 14.037 14.037 0 0 1-.659-4.407h-16.967a26.637 26.637 0 0 0 2.158 11.182 23.274 23.274 0 0 0 5.666 7.824 22.679 22.679 0 0 0 8.034 4.617 29.482 29.482 0 0 0 9.323 1.5 32.114 32.114 0 0 0 10.612-1.709 24.414 24.414 0 0 0 8.514-4.976 23.051 23.051 0 0 0 5.661-8.069 27.315 27.315 0 0 0 2.068-10.912 24.639 24.639 0 0 0-3.028-12.471 18.682 18.682 0 0 0-9.2-7.914 20 20 0 0 0 4.766-3.507 22.747 22.747 0 0 0 3.507-4.5 21.029 21.029 0 0 0 2.938-10.762 28.428 28.428 0 0 0-1.889-10.762 21.542 21.542 0 0 0-5.276-7.794 22.078 22.078 0 0 0-8.124-4.736 32.663 32.663 0 0 0-10.432-1.589 26.7 26.7 0 0 0-9.623 1.709 23.512 23.512 0 0 0-7.764 4.8 22.339 22.339 0 0 0-5.216 7.494 24.293 24.293 0 0 0-1.919 9.8h16.967a11.777 11.777 0 0 1 .659-4.077 9.856 9.856 0 0 1 1.739-3.058 7.221 7.221 0 0 1 2.548-1.919 7.856 7.856 0 0 1 6.685.18 7.612 7.612 0 0 1 2.608 2.308 10.283 10.283 0 0 1 1.559 3.477 17.934 17.934 0 0 1 .51 4.407 15.451 15.451 0 0 1-2.188 8.723q-2.189 3.269-6.865 3.268h-8.214z" fill="url(#diagonal-texture)"/></svg>