<svg xmlns="http://www.w3.org/2000/svg" width="1466" height="445" viewBox="0 0 1466 445"><pattern id="diagonal-texture" patternUnits="userSpaceOnUse" width="6" height="6"><style>.diagonal-1{fill:#242424}</style><path d="M0 0h6v6H0z"/><path class="diagonal-1" d="M5 0h1v1H5zM4 1h1v1H4zM3 2h1v1H3zM2 3h1v1H2zM1 4h1v1H1zM0 5h1v1H0zM4.5.5H5V1h-.5zM5 1h.5v.5H5zM4 2h.5v.5H4zm-.5-.5H4V2h-.5zm-1 1H3V3h-.5zM3 3h.5v.5H3zM2 4h.5v.5H2zM1 5h.5v.5H1zM0 0h.5v.5H0z"/>/&gt;<path class="diagonal-1" d="M5.5 5.5H6V6h-.5zm-4-2H2V4h-.5zm-1 1H1V5H.5z"/></pattern><g fill="url(#diagonal-texture)"><path class="a" d="M63.733 98.673h10.492l3.6-24.581h12.408V63.72H79.321l2.518-16.967H94.07V36.32H83.338L87 11.379H76.5L72.846 36.32h-8.034l3.657-24.941H58.037L54.38 36.32H41.61v10.432h11.271L50.363 63.72H37.892v10.372h10.972l-3.6 24.581h10.495L59.3 74.092h8.03zm-.42-51.921h8.034L68.829 63.72H60.8zm75.169-36.272a35.971 35.971 0 0 0-16.188 3.507 33.5 33.5 0 0 0-11.9 9.833 45.092 45.092 0 0 0-7.344 15.139 70.557 70.557 0 0 0-2.518 19.425V65.1a51.484 51.484 0 0 0 1.829 14.149 33.656 33.656 0 0 0 5.246 11 24.034 24.034 0 0 0 8.274 7.1 23.348 23.348 0 0 0 10.912 2.518 23.48 23.48 0 0 0 18.586-8.633 29.086 29.086 0 0 0 5.1-9.5 37.789 37.789 0 0 0 1.8-11.841 49.179 49.179 0 0 0-1.289-11.451 30.286 30.286 0 0 0-3.9-9.443 20.137 20.137 0 0 0-6.505-6.415 17.2 17.2 0 0 0-9.113-2.368 17.437 17.437 0 0 0-7.674 1.649 18.5 18.5 0 0 0-5.935 4.527 32.6 32.6 0 0 1 2.308-9.023 21.888 21.888 0 0 1 4.437-6.775 18.111 18.111 0 0 1 6.565-4.257 24.361 24.361 0 0 1 8.753-1.469h.839V10.48zm-8.543 44.936a9.982 9.982 0 0 1 2.938 3.268 17.59 17.59 0 0 1 1.889 5.006 28.9 28.9 0 0 1 .66 6.385 29.471 29.471 0 0 1-.63 6.3 18.169 18.169 0 0 1-1.8 4.976 9.553 9.553 0 0 1-2.848 3.268 6.362 6.362 0 0 1-3.717 1.169q-4.017 0-6.475-4.557T117.5 67.437v-6.116a12.581 12.581 0 0 1 3.268-5.036 7.659 7.659 0 0 1 5.426-2.038 6.5 6.5 0 0 1 3.744 1.169zm79.994-8.064a65.576 65.576 0 0 0-1.888-16.817 34.111 34.111 0 0 0-5.245-11.572 20.577 20.577 0 0 0-8.034-6.655 25.684 25.684 0 0 0-20.475 0 20.626 20.626 0 0 0-8 6.655 33.688 33.688 0 0 0-5.216 11.571 66.57 66.57 0 0 0-1.859 16.817V62.58a65.839 65.839 0 0 0 1.884 16.878 34.075 34.075 0 0 0 5.246 11.571 20.815 20.815 0 0 0 8.034 6.685 25.357 25.357 0 0 0 20.475 0 20.888 20.888 0 0 0 8-6.685 33.7 33.7 0 0 0 5.216-11.571 66.874 66.874 0 0 0 1.859-16.877zm-17.027 17.567a70.985 70.985 0 0 1-.57 9.8 25.221 25.221 0 0 1-1.649 6.445 8.253 8.253 0 0 1-2.608 3.537 5.835 5.835 0 0 1-3.447 1.079 6.065 6.065 0 0 1-3.537-1.079 8.32 8.32 0 0 1-2.668-3.537 24.928 24.928 0 0 1-1.709-6.445 67.38 67.38 0 0 1-.6-9.8V44.894a65.621 65.621 0 0 1 .6-9.683 25.343 25.343 0 0 1 1.679-6.355 8.147 8.147 0 0 1 2.638-3.507 6.142 6.142 0 0 1 6.955 0 8.154 8.154 0 0 1 2.638 3.507 25.39 25.39 0 0 1 1.679 6.355 65.759 65.759 0 0 1 .6 9.683z"/><path class="a" d="M39.065 95.086v335.979h70.315V303.153h4.08l61.676 127.912h79.915l-71.516-134.152c41.277-13.679 65.516-48 65.516-95.514 0-66-41.757-106.313-109.433-106.313zM140.1 159.642c20.639 0 37.2 13.2 37.2 41.757 0 28.8-16.319 42-37.2 42h-30.72v-83.757z"/><path class="a" d="M480.89 95.086h-76.316l-49.2 122.392-49.2-122.392h-78.708L320.1 302.913v128.152h70.316V301.233zm231.361 0h-70.556v226.306c0 31.2-15.6 45.837-40.557 45.837s-40.558-14.639-40.558-45.837V95.086h-70.555v229.666c0 66.476 38.158 111.353 111.113 111.353s111.113-44.877 111.113-111.353z"/></g></svg>