<svg xmlns="http://www.w3.org/2000/svg" width="670" height="670" viewBox="0 0 670 670"><linearGradient x1="0%" x2="0%" y1="0%" y2="100%" id="a"><stop offset="0%" stop-color="#d66966"/><stop offset="100%" stop-color="#b54744"/></linearGradient><g fill="url(#a)"><path class="ptn" d="M403.035 348.2c6.7-19.426 14.683-38.66 23.206-57.261C482.353 264.171 534.262 251 583 243.3c-54.512.849-75.146 1.649-98.666-2.668-20.729-3.811-14.722-18.161-1.695-25.625-9.84 2.445-14.824 5.539-20.79 11.033 2.072-8.1 11.66-16.884 26-22.521-27.829 5.278-69.1 21.114-101.254 38.39-22.454 12.064-40.443 23.463-55.543 34.909 14.184 12.208 22.195 25.372 24.646 40.25 5.183 31.48-5.241 63.379-30.15 92.247a200.836 200.836 0 0 1-19.34 19.37c-1.088 5.97-17.37 25.115-29.117 35.669a439.638 439.638 0 0 1 43.8-25.577c4.588 39.188 23.13 81.417 43.367 108.04-9.679-21.088-14.485-42.966-11.443-42.2 5.691 1.436 22.314 29.932 29.234 41.944-2.046-7.008-5.447-18.225-9.4-26.771 7.08 8.824 14.805 18.851 26.164 35.34-15.355-58.864-16.8-107.8-12.313-140.59.134-.97.309-1.939.454-2.913 25.027-7.5 46.734-10.069 73.28-12.611-3.359-30.714 34.02-69.768 72.414-85.765-37.753 5.119-97.262 20.476-127.335 33.913-.767.347-1.519.688-2.278 1.036z"/><path class="ptn" d="M342.343 321.838c-3.878-23.59-23.611-40.951-50.893-55.562-13.351-7.145-22.04-16.084-24.54-27.613-3.063-14.109 4.265-27.23 18.514-40.577s87.954-60 161.753-73.519c-19.226-.154-45.36 3.422-61.86 8.035 4.16-2.97 8.263-4.983 16.138-7.958-14.352 2.381-34.65 7.174-48.971 13.447 18.115-11.338 32-17.39 45.829-23.222-17.271 4.416-48.211 12.225-66.062 17.6-85.872 25.845-164.942 66.512-151.411 126.831 4.782 21.329 17.244 33.608 41.747 45.781 9.82 4.886 21.416 11.72 24.83 22.253 7.892 24.355-26.151 55.6-75.98 81.33C145.221 422.19 113.953 436.1 87 443.075c24.02 5.058 94.246-2.32 125.974-12.824-21.628 13.969-48.826 24.2-76.628 31 33.129-2.962 63-6.214 67.736.89 4.791 7.179-6.5 18.927-18.813 29.035 4.722-1.924 6.794-2.943 11.567-4.955 107.353-45.138 155.289-104.956 145.507-164.383z"/></g></svg>