<svg id="レイヤー_1" data-name="レイヤー 1" xmlns="http://www.w3.org/2000/svg" viewBox="0 0 1466 440"><pattern id="diagonal-texture" patternUnits="userSpaceOnUse" width="6" height="6"><style>.diagonal-1{fill:#242424}</style><path d="M0 0h6v6H0z"/><path class="diagonal-1" d="M5 0h1v1H5zM4 1h1v1H4zM3 2h1v1H3zM2 3h1v1H2zM1 4h1v1H1zM0 5h1v1H0zM4.5.5H5V1h-.5zM5 1h.5v.5H5zM4 2h.5v.5H4zm-.5-.5H4V2h-.5zm-1 1H3V3h-.5zM3 3h.5v.5H3zM2 4h.5v.5H2zM1 5h.5v.5H1zM0 0h.5v.5H0z"/>/&gt;<path class="diagonal-1" d="M5.5 5.5H6V6h-.5zm-4-2H2V4h-.5zm-1 1H1V5H.5z"/></pattern><g fill="url(#diagonal-texture)"><path d="M282.79 94.086h-80.162a22.646 22.646 0 0 0 3.837-4.057 33.72 33.72 0 0 0 5.216-11.571 66.909 66.909 0 0 0 1.858-16.878V46.352a65.585 65.585 0 0 0-1.888-16.818 34.114 34.114 0 0 0-5.246-11.571 20.583 20.583 0 0 0-8.034-6.655 25.69 25.69 0 0 0-20.475 0 20.627 20.627 0 0 0-8 6.655 33.682 33.682 0 0 0-5.216 11.571 66.594 66.594 0 0 0-1.858 16.818V61.58a65.85 65.85 0 0 0 1.888 16.878 34.077 34.077 0 0 0 5.246 11.571 20.816 20.816 0 0 0 8.034 6.685 25.362 25.362 0 0 0 20.475 0 19.46 19.46 0 0 0 2.656-1.51l-66.642 133.514h-15.6V94.086H84.25l3.072-20.994h12.411V62.719H88.821l2.518-16.967h12.231V35.32H92.838L96.5 10.379H86L82.346 35.32h-8.034l3.657-24.941H67.537L63.88 35.32H51.109v10.432h11.272l-2.518 16.967H47.392v10.373h10.972l-3.072 20.994h-6.727v335.979h70.315V292.794h14.639L206 430.065h83.274L194 258zm-86.278-30.167a71.057 71.057 0 0 1-.569 9.8 25.258 25.258 0 0 1-1.649 6.445 8.262 8.262 0 0 1-2.608 3.538 5.839 5.839 0 0 1-3.448 1.079A6.068 6.068 0 0 1 184.7 83.7a8.32 8.32 0 0 1-2.668-3.538 24.919 24.919 0 0 1-1.709-6.445 67.4 67.4 0 0 1-.6-9.8V43.894a65.647 65.647 0 0 1 .6-9.683A25.358 25.358 0 0 1 182 27.856a8.145 8.145 0 0 1 2.638-3.508 6.143 6.143 0 0 1 6.955 0 8.161 8.161 0 0 1 2.638 3.508 25.362 25.362 0 0 1 1.678 6.355 65.631 65.631 0 0 1 .6 9.683zM73.758 94.086h-7.983L68.8 73.092h8.03zm4.571-31.367H70.3l2.518-16.967h8.034zm211.914 367.346h180.709v-63.836H360.559v-73.915h103.673v-63.836H360.559v-70.556h111.353V94.086H290.243zM651.669 94.086v196.548L556.875 94.086H488v335.979h69.116V234.237l95.034 195.828h68.875V94.086zM114.158 89.25a24.035 24.035 0 0 0 8.274 7.1 23.343 23.343 0 0 0 10.912 2.518 23.479 23.479 0 0 0 18.586-8.633 29.108 29.108 0 0 0 5.1-9.5 37.791 37.791 0 0 0 1.8-11.841 49.186 49.186 0 0 0-1.29-11.452 30.276 30.276 0 0 0-3.9-9.442 20.136 20.136 0 0 0-6.5-6.416 17.209 17.209 0 0 0-9.113-2.368 17.435 17.435 0 0 0-7.674 1.649 18.5 18.5 0 0 0-5.936 4.527 32.57 32.57 0 0 1 2.309-9.024 21.9 21.9 0 0 1 4.436-6.775 18.129 18.129 0 0 1 6.565-4.256 24.366 24.366 0 0 1 8.754-1.469h.839V9.48h-2.278a35.976 35.976 0 0 0-16.188 3.507 33.5 33.5 0 0 0-11.9 9.833 45.075 45.075 0 0 0-7.354 15.138 70.549 70.549 0 0 0-2.519 19.425V64.1a51.473 51.473 0 0 0 1.829 14.149 33.674 33.674 0 0 0 5.248 11.001zm9.893-28.929a12.579 12.579 0 0 1 3.267-5.036 7.662 7.662 0 0 1 5.426-2.038 6.493 6.493 0 0 1 3.747 1.169 9.988 9.988 0 0 1 2.938 3.267 17.605 17.605 0 0 1 1.889 5.007 28.924 28.924 0 0 1 .659 6.385 29.519 29.519 0 0 1-.629 6.3 18.177 18.177 0 0 1-1.8 4.976 9.546 9.546 0 0 1-2.848 3.268 6.364 6.364 0 0 1-3.717 1.169q-4.017 0-6.475-4.557t-2.458-13.789z"/><path d="M232.454 27.224a12.768 12.768 0 0 0-2.318.194 5.709 5.709 0 0 0-1.817.632 3.379 3.379 0 0 0-1.2 1.136 3.208 3.208 0 0 0-.437 1.734 3.146 3.146 0 0 0 .324 1.362 3.419 3.419 0 0 0 1.006 1.216 5.284 5.284 0 0 0 1.718.859 8.151 8.151 0 0 0 2.432.325 7.41 7.41 0 0 0 4.233-.956 2.769 2.769 0 0 0 1.345-2.287h10.929a8.763 8.763 0 0 1-1.378 4.961 11.21 11.21 0 0 1-3.616 3.422 17.2 17.2 0 0 1-5.06 1.994 25.357 25.357 0 0 1-5.707.649 30.279 30.279 0 0 1-6.729-.713 18.852 18.852 0 0 1-5.432-2.076 11.155 11.155 0 0 1-3.632-3.323 7.771 7.771 0 0 1-1.33-4.46 7.554 7.554 0 0 1 1.736-5.042 10.491 10.491 0 0 1 4.977-3.1 11.117 11.117 0 0 1-4.475-3.129 6.594 6.594 0 0 1-1.622-4.3 7.958 7.958 0 0 1 1.233-4.41 9.942 9.942 0 0 1 3.422-3.194 17.855 17.855 0 0 1 5.22-1.947 31.065 31.065 0 0 1 6.632-.665 22.984 22.984 0 0 1 5.886.731 15.621 15.621 0 0 1 4.832 2.124 10.965 10.965 0 0 1 3.275 3.388 8.576 8.576 0 0 1 1.216 4.557h-10.929a2.411 2.411 0 0 0-1.41-2.287 7.776 7.776 0 0 0-3.584-.729 7.2 7.2 0 0 0-2.254.308 4.6 4.6 0 0 0-1.507.794 2.9 2.9 0 0 0-.843 1.1 3.138 3.138 0 0 0-.26 1.232 2.61 2.61 0 0 0 1.379 2.335 7.145 7.145 0 0 0 3.745.844h5.675v6.713z"/></g></svg>