<svg xmlns="http://www.w3.org/2000/svg" width="1466" height="260" viewBox="0 0 1466 260"><pattern id="diagonal-texture" patternUnits="userSpaceOnUse" width="6" height="6"><style>.diagonal-1{fill:#242424}</style><path d="M0 0h6v6H0z"/><path class="diagonal-1" d="M5 0h1v1H5zM4 1h1v1H4zM3 2h1v1H3zM2 3h1v1H2zM1 4h1v1H1zM0 5h1v1H0zM4.5.5H5V1h-.5zM5 1h.5v.5H5zM4 2h.5v.5H4zm-.5-.5H4V2h-.5zm-1 1H3V3h-.5zM3 3h.5v.5H3zM2 4h.5v.5H2zM1 5h.5v.5H1zM0 0h.5v.5H0z"/>/&gt;<path class="diagonal-1" d="M5.5 5.5H6V6h-.5zm-4-2H2V4h-.5zm-1 1H1V5H.5z"/></pattern><g fill="url(#diagonal-texture)"><path d="M40.248 12.5v241.329h76.365c49.818 0 77.571-25.168 77.571-69.125 0-24.823-12.756-43.612-31.89-53.61 16.893-10 27.926-26.719 27.926-50.163 0-43.267-29.477-68.435-77.4-68.435zm75.33 141.525c15.514 0 26.719 8.274 26.719 27.753 0 19.307-11.377 27.581-26.719 27.581H90.756v-55.338zm-3.1-97.05c14.652 0 25.685 8.1 25.685 26.719 0 18.445-11.032 26.547-25.857 26.547h-21.55v-53.27zM309.236 12.5h-58.265l-64.3 241.333h51.889l11.377-49.646h59.644l11.549 49.646h52.4zm-29.477 62.57l19.307 83.26h-38.442zM515.3 12.5h-54.815l-35.338 87.91-35.338-87.91h-56.541l66.539 149.282v92.051h50.507v-93.262zm69.548-3.624c-55.679 0-88.776 44.647-88.776 124.286s33.1 124.287 88.776 124.287c55.506 0 88.776-44.647 88.776-124.287S640.355 8.876 584.848 8.876zm-.172 49.3c23.1 0 36.545 23.789 36.545 74.986s-13.446 74.986-36.545 74.986-36.545-23.788-36.545-74.986 13.446-74.985 36.545-74.985zM850.4 12.5h-49.821v141.18L732.489 12.5h-49.473v241.329h49.646V113.167l68.263 140.663H850.4zm144.018 195.476h-79.3v-53.093h74.468v-45.854h-74.463V58.35h79.985V12.5H864.615v241.329h129.8zM1145.314 12.5H996.205v46.539h49.3v194.79h50.507V59.039h49.3z"/><path d="M1288.625 12.5h-149.109v46.539h49.3v194.79h50.508V59.039h49.3zm92.452 0h-58.265l-64.3 241.333h51.888l11.377-49.646h59.644l11.549 49.646h52.4zM1351.6 75.07l19.307 83.26h-38.441z"/></g></svg>