<svg id="レイヤー_1" data-name="レイヤー 1" xmlns="http://www.w3.org/2000/svg" viewBox="0 0 1466 402"><pattern id="diagonal-texture" patternUnits="userSpaceOnUse" width="6" height="6"><style>.diagonal-1{fill:#242424}</style><path d="M0 0h6v6H0z"/><path class="diagonal-1" d="M5 0h1v1H5zM4 1h1v1H4zM3 2h1v1H3zM2 3h1v1H2zM1 4h1v1H1zM0 5h1v1H0zM4.5.5H5V1h-.5zM5 1h.5v.5H5zM4 2h.5v.5H4zm-.5-.5H4V2h-.5zm-1 1H3V3h-.5zM3 3h.5v.5H3zM2 4h.5v.5H2zM1 5h.5v.5H1zM0 0h.5v.5H0z"/>/&gt;<path class="diagonal-1" d="M5.5 5.5H6V6h-.5zm-4-2H2V4h-.5zm-1 1H1V5H.5z"/></pattern><g fill="url(#diagonal-texture)"><path d="M143.42 248c-24.94 0-42.42-26.63-42.42-89.71 0-61.43 16.08-89.67 42.46-89.67 16.7 0 28.65 9.89 36.49 30.09L232.1 74.8C217.42 33 185.27 9.67 143.22 9.67 78.08 9.67 38.5 62.44 38.5 158.29s39.58 148.62 104.72 148.62c42.05 0 72.56-22.88 87.81-63.08l-50.5-26c-8.45 20.44-20.41 30.17-37.11 30.17zM334.18 9.67C267.6 9.67 228 63.06 228 158.29s39.6 148.62 106.18 148.62c66.37 0 106.16-53.39 106.16-148.62S400.55 9.67 334.18 9.67zM334 248c-27.62 0-43.7-28.45-43.7-89.67s16.05-89.71 43.7-89.71 43.7 28.45 43.7 89.67S361.59 248 334 248zm298-142.64c0-56.69-35.87-91.32-94-91.32h-86.43v288.54H512V192.71h3.5l53 109.87h68.64l-61.48-115.22c35.45-11.75 56.27-41.23 56.27-82.04zm-93.58 36.07H512V69.45h26.38c17.73 0 32 11.34 32 35.87-.08 24.73-14.1 36.07-32.03 36.07zm284.68-36.11c0-56.69-35.87-91.32-94-91.32h-86.37v288.58h60.4V192.71h3.5l53 109.87h68.64l-61.45-115.22c35.46-11.75 56.28-41.23 56.28-82.04zm-93.58 36.07h-26.39V69.45h26.38c17.73 0 32 11.34 32 35.87-.04 24.73-14.06 36.07-31.99 36.07zM833.9 302.58h60.4V14h-60.4zM1051.81 14v168.82L970.39 14h-59.16v288.58h59.37v-168.2l81.63 168.2h59.16V14z"/><path class="cls-1" d="M70.58 392.39h10.5l3.6-24.58h12.4v-10.37H86.17l2.52-17h12.23V330H90.19l3.66-24.94h-10.5L79.7 330h-8l3.66-24.94H64.89L61.23 330H48.46v10.43h11.27l-2.52 17H44.74v10.37h11l-3.6 24.58h10.47l3.54-24.58h8zm-.42-51.92h8l-2.52 17h-8zm75.17-36.27a36 36 0 0 0-16.19 3.51 33.5 33.5 0 0 0-11.9 9.83 45.09 45.09 0 0 0-7.34 15.14 70.56 70.56 0 0 0-2.52 19.43v6.71a51.48 51.48 0 0 0 1.83 14.18 33.66 33.66 0 0 0 5.25 11 24 24 0 0 0 8.27 7.1 23.35 23.35 0 0 0 10.91 2.52 23.48 23.48 0 0 0 18.59-8.62 29.09 29.09 0 0 0 5.1-9.5 37.79 37.79 0 0 0 1.8-11.84 49.18 49.18 0 0 0-1.29-11.45 30.29 30.29 0 0 0-3.9-9.44 20.14 20.14 0 0 0-6.51-6.42 17.21 17.21 0 0 0-9.11-2.37 17.44 17.44 0 0 0-7.67 1.65 18.49 18.49 0 0 0-5.94 4.53 32.6 32.6 0 0 1 2.31-9 21.89 21.89 0 0 1 4.44-6.77 18.11 18.11 0 0 1 6.56-4.26 24.36 24.36 0 0 1 8.75-1.47h.84V304.2zm-8.54 44.94a10 10 0 0 1 2.94 3.27 17.59 17.59 0 0 1 1.89 5 28.9 28.9 0 0 1 .66 6.39 29.47 29.47 0 0 1-.63 6.3 18.17 18.17 0 0 1-1.8 5 9.55 9.55 0 0 1-2.85 3.27 6.36 6.36 0 0 1-3.72 1.17q-4 0-6.48-4.56t-2.46-13.79V355a12.58 12.58 0 0 1 3.27-5 7.66 7.66 0 0 1 5.43-2 6.5 6.5 0 0 1 3.75 1.14zm80.71 29.16h-29.68l11.21-16q3.84-4.56 6.89-8.72a64.2 64.2 0 0 0 5.19-8.24 41.9 41.9 0 0 0 3.27-8.18 33.49 33.49 0 0 0-.45-18.86 20.46 20.46 0 0 0-4.71-7.79 20.78 20.78 0 0 0-7.7-4.89 30.22 30.22 0 0 0-10.58-1.71 25.73 25.73 0 0 0-11 2.28 24.57 24.57 0 0 0-8.27 6.18 27.69 27.69 0 0 0-5.22 9.11 33.45 33.45 0 0 0-1.83 11.15h17a29.66 29.66 0 0 1 .54-5.82 15 15 0 0 1 1.68-4.65 9.07 9.07 0 0 1 2.82-3.06 7 7 0 0 1 4-1.11 6.4 6.4 0 0 1 5.79 3.3q2 3.3 2 9.11a19.65 19.65 0 0 1-.42 4 23.69 23.69 0 0 1-1.44 4.44 45.72 45.72 0 0 1-2.7 5.25q-1.68 2.85-4.2 6.33l-23.62 30v12h51.43z"/></g></svg>