<svg width="375" height="161" viewBox="0 0 375 161" fill="none" xmlns="http://www.w3.org/2000/svg">
<path d="M36.672 97.8208C27.9549 97.8208 21.8452 86.8907 21.8452 61C21.8452 35.7865 27.4655 24.1956 36.686 24.1956C42.523 24.1956 46.6998 28.2549 49.4401 36.5458L67.6677 26.7321C62.5367 9.57563 51.2995 0 36.6021 0C13.8341 0 0 21.6591 0 61C0 100.341 13.8341 122 36.6021 122C51.2995 122 61.9635 112.609 67.2937 96.1093L49.6428 85.4378C46.6893 93.8272 42.509 97.8208 36.672 97.8208V97.8208ZM103.347 0C80.0758 0 66.2347 21.9135 66.2347 61C66.2347 100.086 80.0758 122 103.347 122C126.545 122 140.452 100.086 140.452 61C140.452 21.9135 126.545 0 103.347 0ZM103.284 97.8208C93.6303 97.8208 88.0099 86.1437 88.0099 61.0164C88.0099 35.8891 93.6198 24.1956 103.284 24.1956C112.948 24.1956 118.558 35.8727 118.558 61C118.558 86.1273 112.927 97.8208 103.284 97.8208ZM207.442 39.2753C207.442 16.0073 194.905 1.79363 174.587 1.79363H144.378V120.223H165.499V75.1274H166.723L185.247 120.223H209.239L187.75 72.9316C200.14 68.1089 207.418 56.009 207.418 39.2588L207.442 39.2753ZM174.734 54.0799H165.499V24.5363H174.72C180.917 24.5363 185.904 29.1907 185.904 39.2588C185.876 49.4091 180.976 54.0635 174.709 54.0635L174.734 54.0799ZM274.236 39.2588C274.236 15.9909 261.699 1.77722 241.381 1.77722H211.192V120.223H232.304V75.1274H233.527L252.052 120.223H276.043L254.565 72.9316C266.959 68.1089 274.236 56.009 274.236 39.2588V39.2588ZM241.528 54.0635H232.304V24.5363H241.524C247.721 24.5363 252.709 29.1907 252.709 39.2588C252.695 49.4091 247.795 54.0635 241.528 54.0635V54.0635ZM278.011 120.223H299.122V1.77722H278.011V120.223ZM354.175 1.77722V71.0682L325.717 1.77722H305.039V120.223H325.791V51.1863L354.322 120.223H375V1.77722H354.175Z" fill="url(#paint0_linear)"/>
<path d="M10.138 160.464H14.2575L15.6699 149.779H20.5349V145.271H16.2545L17.2432 137.881H22.0414V133.343H17.8317L19.2676 122.502H15.1481L13.7161 133.343H10.5774L12.0133 122.502H7.90557L6.46962 133.343H1.45949V137.877H5.88112L4.89243 145.267H0V149.775H4.3157L2.90329 160.459H7.01105L8.39992 149.775H11.5386L10.138 160.464ZM9.97319 137.895H13.1119L12.1232 145.284H8.9845L9.97319 137.895ZM39.4651 122.128C37.2695 122.083 35.0946 122.605 33.1132 123.654C31.2779 124.656 29.6792 126.119 28.4444 127.927C27.1203 129.901 26.1434 132.134 25.5646 134.508C24.8822 137.259 24.5494 140.102 24.5759 142.954V145.871C24.5553 147.953 24.797 150.027 25.2939 152.035C25.7122 153.755 26.4102 155.375 27.3537 156.817C28.2073 158.108 29.3174 159.164 30.5983 159.903C31.9238 160.647 33.3928 161.023 34.8787 160.998C36.2709 161.025 37.6506 160.702 38.9138 160.053C40.1771 159.404 41.2912 158.446 42.1722 157.251C43.0656 156.025 43.7442 154.624 44.1731 153.122C44.654 151.459 44.8923 149.721 44.8793 147.975C44.8872 146.3 44.7174 144.629 44.3732 142.998C44.0765 141.544 43.5591 140.156 42.8431 138.894C42.1961 137.759 41.3222 136.805 40.289 136.104C39.2072 135.399 37.9695 135.042 36.7148 135.073C35.6756 135.056 34.6465 135.301 33.7056 135.791C32.8159 136.264 32.0229 136.935 31.3751 137.76C31.5071 136.414 31.8123 135.097 32.2814 133.848C32.6919 132.755 33.2826 131.757 34.0234 130.905C34.7493 130.087 35.6277 129.455 36.5971 129.053C37.6965 128.609 38.8601 128.392 40.0301 128.414H40.3596V122.128H39.4651ZM36.1145 141.663C36.5895 142.036 36.9835 142.522 37.268 143.085C37.6137 143.763 37.8637 144.496 38.0095 145.258C38.1887 146.171 38.2756 147.102 38.2685 148.036C38.2751 148.956 38.1922 149.874 38.0213 150.774C37.8833 151.533 37.6454 152.266 37.3151 152.948C37.0457 153.511 36.6631 153.997 36.1969 154.369C35.7705 154.704 35.26 154.882 34.7374 154.878C33.6912 154.878 32.8438 154.217 32.1951 152.896C31.5464 151.574 31.2247 149.576 31.23 146.901V144.211C31.4939 143.382 31.9339 142.637 32.5129 142.037C33.0931 141.45 33.8579 141.138 34.6433 141.168C35.168 141.161 35.6818 141.334 36.1145 141.663V141.663ZM67.78 154.339H56.1355L60.5335 147.384C61.5379 146.062 62.439 144.799 63.2367 143.593C63.9964 142.458 64.6771 141.261 65.273 140.011C65.8122 138.879 66.2422 137.688 66.5559 136.456C67.2073 133.761 67.146 130.915 66.3794 128.257C66.0007 126.989 65.3691 125.832 64.5315 124.871C63.679 123.923 62.6471 123.197 61.5105 122.745C60.1779 122.226 58.7721 121.974 57.3595 122.002C55.8727 121.976 54.399 122.315 53.0439 122.993C51.8028 123.624 50.6968 124.54 49.7992 125.68C48.8949 126.843 48.1997 128.187 47.7512 129.64C47.2656 131.199 47.0228 132.837 47.0333 134.487H53.703C53.6982 133.638 53.7692 132.79 53.9148 131.957C54.0321 131.247 54.2549 130.564 54.574 129.935C54.8447 129.403 55.2235 128.948 55.6804 128.605C56.1474 128.272 56.6946 128.104 57.2497 128.123C57.7107 128.107 58.1666 128.233 58.5673 128.486C58.968 128.739 59.2981 129.11 59.5213 129.557C60.0444 130.513 60.306 131.833 60.306 133.517C60.3049 134.101 60.2497 134.684 60.1412 135.256C60.0107 135.918 59.8215 136.565 59.5762 137.186C59.2679 137.971 58.914 138.733 58.5169 139.468C58.0775 140.294 57.5283 141.211 56.8691 142.22L47.6022 155.261V160.477H67.78V154.339Z" fill="url(#paint1_linear)"/>
<defs>
<linearGradient id="paint0_linear" x1="187.5" y1="0" x2="187.5" y2="122" gradientUnits="userSpaceOnUse">
<stop stop-color="#33B8E1"/>
<stop offset="1" stop-color="#18191A" stop-opacity="0.94"/>
</linearGradient>
<linearGradient id="paint1_linear" x1="33.89" y1="122" x2="33.89" y2="161" gradientUnits="userSpaceOnUse">
<stop stop-color="#33B8E1"/>
<stop offset="1" stop-color="#18191A" stop-opacity="0.94"/>
</linearGradient>
</defs>
</svg>
