<svg xmlns="http://www.w3.org/2000/svg" width="670" height="670" viewBox="0 0 670 670"><linearGradient x1="0%" x2="0%" y1="0%" y2="100%" id="a"><stop offset="0%" stop-color="#79b2c7"/><stop offset="100%" stop-color="#578fa5"/></linearGradient><path class="cls-1" fill="url(#a)" d="M539.779 164.6c14.46-14.472 9.342-43.525 9.342-43.525s-29.785-5.849-44.248 8.61c-10.514 10.52-15.417 23.713-13.606 33.84l-26.017 25.2c-14.426-2.575-19.66-3.6-33.083 2.158-2.6-2.616-27.563-45.777-27.563-45.777l-57.526-.719-29.49 41.7 8.632 50.327 28.769-42.42 17.978 1.438 16.533 32.356-12.934 33.073-215.273 178.261L120 550.1l110.315-41.94 178.6-215.66 33.406-11.89 32.363 16.535 1.437 17.978-47.062 24.107 54.977 13.27 41.7-29.48-.717-57.513s-33.121-23.9-46.353-31.011c7.675-17.259 2.669-19.876 2.287-29.207l25.326-27.039c10.069 1.639 23.09-3.261 33.5-13.65zm-96.025 82.507c-10.659 10.649-24.364 14.2-30.626 7.947-6.274-6.27-2.722-19.975 7.928-30.63s24.36-14.2 30.63-7.928c6.258 6.25 2.714 19.964-7.932 30.61z"/></svg>