<svg width="488" height="449" viewBox="0 0 488 449" fill="none" xmlns="http://www.w3.org/2000/svg">
<path d="M170.529 136.877H112.458C113.502 135.773 114.436 134.507 115.237 133.108C117.016 129.864 118.298 126.216 119.016 122.359C119.982 117.227 120.434 111.958 120.362 106.679V92.5326C120.434 87.2707 119.974 82.0191 118.994 76.9087C118.263 73.052 116.974 69.4057 115.194 66.1593C113.7 63.4918 111.696 61.3626 109.374 59.9769C107.033 58.6729 104.509 58 101.957 58C99.4057 58 96.8813 58.6729 94.541 59.9769C92.2289 61.3687 90.2336 63.4972 88.7456 66.1593C86.9662 69.403 85.6839 73.0509 84.9669 76.9087C84.0021 82.0221 83.5498 87.2724 83.621 92.5326V106.679C83.5472 111.96 84.0069 117.23 84.9887 122.359C85.7188 126.216 87.008 129.862 88.789 133.108C90.2856 135.779 92.2888 137.917 94.6091 139.319C96.9457 140.641 99.4716 141.323 102.025 141.323C104.579 141.323 107.105 140.641 109.442 139.319C110.111 138.916 110.754 138.447 111.366 137.916L63.0884 261.95H51.7873V136.877H26.701L28.9265 117.374H37.9174V107.737H30.0124L31.8365 91.9752H40.697V82.2839H32.9224L35.5753 59.1138H27.9688L25.3217 82.2839H19.5017L22.1509 59.1138H14.5936L11.9444 82.2839H2.69271V91.9752H10.8585L9.03437 107.737H0V117.374H7.94845L5.723 136.877H0.849757V449H51.7881V321.476H62.393L114.9 449H175.227L106.207 289.152L170.529 136.877ZM108.027 108.852C108.053 111.895 107.916 114.937 107.615 117.956C107.424 120.011 107.023 122.024 106.42 123.944C106.033 125.238 105.381 126.374 104.531 127.231C103.802 127.895 102.927 128.246 102.033 128.233C101.118 128.248 100.222 127.897 99.47 127.229C98.6059 126.377 97.938 125.241 97.5373 123.942C96.9173 122.026 96.5009 120.012 96.2992 117.955C95.9819 114.937 95.8367 111.895 95.8646 108.85V90.2491C95.8362 87.241 95.9815 84.2343 96.2992 81.2536C96.5027 79.2265 96.9111 77.2419 97.5141 75.3499C97.9065 74.0598 98.5676 72.9325 99.4251 72.091C100.167 71.438 101.045 71.0885 101.944 71.0885C102.844 71.0885 103.722 71.438 104.464 72.091C105.321 72.9331 105.982 74.0602 106.375 75.3499C106.978 77.2418 107.386 79.2264 107.59 81.2536C107.908 84.2343 108.053 87.241 108.025 90.2491L108.027 108.852ZM19.1003 136.877H13.3172L15.5086 117.374H21.3258L19.1003 136.877ZM22.4117 107.737H16.5952L18.4194 91.9752H24.2394L22.4117 107.737ZM175.929 449H306.84V389.697H226.868V321.03H301.971V261.727H226.868V196.181H307.535V136.877H175.929V449ZM437.756 136.877V319.469L369.085 136.877H319.19V449H369.259V267.077L438.105 449H488V136.877H437.756ZM48.3673 132.385C49.9449 135.143 51.9956 137.4 54.3612 138.98C56.8092 140.571 59.5222 141.374 62.2662 141.32C64.8372 141.375 67.3846 140.682 69.7167 139.293C72.0488 137.904 74.1049 135.855 75.7305 133.3C77.3798 130.679 78.6329 127.685 79.4251 124.474C80.3129 120.92 80.7531 117.206 80.729 113.474C80.7437 109.893 80.43 106.322 79.7945 102.835C79.247 99.7271 78.2916 96.7611 76.9692 94.0635C75.7764 91.6405 74.1653 89.6012 72.2604 88.1031C70.2621 86.5971 67.976 85.8353 65.6587 85.9033C63.7389 85.8654 61.8376 86.3893 60.0994 87.4352C58.4581 88.4477 56.9949 89.8787 55.7992 91.6407C56.0407 88.758 56.604 85.9347 57.4719 83.2575C58.2287 80.9216 59.3185 78.7871 60.6855 76.9635C62.0275 75.2174 63.6506 73.8681 65.4414 73.0097C67.4723 72.0607 69.6218 71.5982 71.783 71.645H72.3909V58.2787H70.7406C66.6872 58.1802 62.6717 59.2958 59.0135 61.5366C55.6246 63.6795 52.6727 66.8074 50.3928 70.6715C47.9443 74.8887 46.1369 79.6595 45.0653 84.7346C43.8057 90.6117 43.1915 96.6855 43.2405 102.78V109.02C43.2042 113.459 43.6502 117.883 44.5655 122.165C45.3374 125.84 46.6258 129.303 48.3673 132.385V132.385ZM55.5341 105.51C56.017 103.728 56.829 102.123 57.9008 100.831C58.9672 99.5645 60.3785 98.8847 61.8316 98.938C62.8021 98.9322 63.7502 99.3115 64.546 100.024C65.4223 100.821 66.1494 101.857 66.6744 103.059C67.3127 104.511 67.7742 106.08 68.0428 107.71C68.3731 109.659 68.5332 111.648 68.5202 113.642C68.5324 115.608 68.3796 117.57 68.0646 119.495C67.8081 121.109 67.3687 122.666 66.7606 124.117C66.2635 125.319 65.5576 126.358 64.6974 127.153C63.9104 127.868 62.9687 128.247 62.0047 128.239C60.0647 128.239 58.5011 126.828 57.314 124.006C56.1269 121.184 55.5334 116.914 55.5334 111.196L55.5341 105.51Z" fill="url(#paint0_linear)"/>
<path d="M138.386 33.6875C137.064 33.678 135.743 33.7815 134.44 33.997C133.355 34.1667 132.309 34.5075 131.346 35.0051C130.515 35.4414 129.813 36.064 129.303 36.8172C128.78 37.6545 128.522 38.6137 128.559 39.5831C128.566 40.337 128.755 41.0795 129.111 41.7557C129.512 42.5186 130.099 43.1828 130.823 43.6954C131.701 44.3157 132.692 44.7802 133.749 45.0656C135.093 45.4332 136.489 45.608 137.889 45.5841C140.4 45.761 142.91 45.2299 145.096 44.0591C145.774 43.6792 146.338 43.1461 146.738 42.5088C147.138 41.8714 147.361 41.1501 147.387 40.411H165.994C166.076 43.2094 165.258 45.9663 163.648 48.3245C162.059 50.5534 159.955 52.4189 157.492 53.7831C154.818 55.2646 151.91 56.3383 148.876 56.9638C145.69 57.6525 142.43 57.9998 139.159 57.999C135.307 58.0221 131.464 57.6406 127.703 56.8617C124.455 56.2126 121.335 55.0955 118.454 53.5502C115.997 52.2368 113.884 50.4258 112.27 48.2495C110.757 46.1505 109.967 43.6677 110.005 41.1352C109.914 38.2068 110.965 35.3477 112.961 33.0925C115.227 30.7232 118.166 29.0079 121.435 28.1476C118.492 27.1032 115.873 25.3877 113.816 23.1564C112.047 21.2543 111.067 18.82 111.054 16.2973C111.003 13.8104 111.733 11.3643 113.154 9.26278C114.635 7.15425 116.633 5.40755 118.98 4.16791C121.751 2.70335 124.75 1.65535 127.868 1.06218C131.58 0.330217 135.366 -0.0254179 139.159 0.00141183C142.54 -0.0170504 145.908 0.374894 149.181 1.16746C152.109 1.85143 154.891 2.99714 157.408 4.55553C159.663 5.95709 161.566 7.80111 162.984 9.95985C164.386 12.154 165.103 14.6722 165.055 17.2289H146.447C146.478 16.4663 146.266 15.7122 145.839 15.0625C145.411 14.4129 144.787 13.8971 144.046 13.5808C142.14 12.7442 140.048 12.3455 137.944 12.418C136.645 12.3902 135.349 12.556 134.106 12.9093C133.174 13.1781 132.304 13.6077 131.54 14.1758C130.917 14.6434 130.425 15.2455 130.105 15.9305C129.817 16.5508 129.667 17.2193 129.662 17.8957C129.652 18.6584 129.865 19.4092 130.279 20.0661C130.693 20.7229 131.292 21.2606 132.01 21.6203C133.965 22.6056 136.17 23.0712 138.386 22.9666H148.049V33.6748L138.386 33.6875Z" fill="url(#paint1_linear)"/>
<defs>
<linearGradient id="paint0_linear" x1="244" y1="58" x2="244" y2="449" gradientUnits="userSpaceOnUse">
<stop offset="0.296875" stop-color="#9D3333"/>
<stop offset="0.916667" stop-color="#1E1B1B"/>
</linearGradient>
<linearGradient id="paint1_linear" x1="138" y1="0" x2="138" y2="58" gradientUnits="userSpaceOnUse">
<stop offset="0.296875" stop-color="#9D3333"/>
<stop offset="0.916667" stop-color="#1E1B1B"/>
</linearGradient>
</defs>
</svg>
