<svg width="450" height="191" viewBox="0 0 450 191" fill="none" xmlns="http://www.w3.org/2000/svg">
<path d="M0 52.0556V188.947H22.7418V136.83H24.0614L44.0089 188.947H69.8554L46.7237 134.288C60.074 128.715 67.9132 114.732 67.9132 95.3723C67.9132 68.4832 54.4078 52.0561 32.5196 52.0561L0 52.0556ZM32.677 78.3564C39.3519 78.3564 44.7077 83.7343 44.7077 95.37C44.7077 107.103 39.4295 112.481 32.677 112.481H22.7418V78.3583L32.677 78.3564ZM94.6739 52.0556H71.9321V188.947H94.6739V52.0556ZM138.364 50C113.838 50 98.9337 75.0337 98.9337 120.501C98.9337 165.968 113.838 191 138.364 191C154.198 191 165.685 180.146 171.429 161.08L152.412 148.759C149.23 158.442 144.726 163.035 138.441 163.035C129.05 163.035 122.452 150.42 122.452 120.501C122.452 91.3606 128.506 77.9668 138.441 77.9668C144.728 77.9668 149.231 82.66 152.179 92.2427L171.815 80.9004C166.306 61.0514 154.197 50 138.364 50ZM196.014 52.0556H173.272V188.947H196.014V133.017H223.104V188.947H245.846V52.0556H223.104V106.616H196.014V52.0556ZM314.591 52.0556H247.45V78.456H269.649V188.947H292.391V78.456H314.59L314.591 52.0556ZM374.651 162.937H338.947V132.819H372.477V106.812H338.947V78.065H374.961V52.0556H316.205V188.947H374.651V162.937ZM380.144 52.0556V188.947H402.886V136.83H404.206L424.153 188.947H450L426.868 134.288C440.219 128.715 448.058 114.732 448.058 95.3723C448.058 68.4832 434.552 52.0561 412.664 52.0561L380.144 52.0556ZM412.821 78.3564C419.496 78.3564 424.852 83.7343 424.852 95.37C424.852 107.103 419.574 112.481 412.821 112.481H402.886V78.3583L412.821 78.3564Z" fill="url(#paint0_linear)"/>
<path d="M396.478 49.2295H399.515L400.557 35.4279H404.147V29.6043H400.989L401.718 20.0778H405.258V14.22H402.152L403.212 0.216245H400.173L399.116 14.22H396.791L397.849 0.216245H394.83L393.772 14.22H390.076V20.0772H393.338L392.609 29.6043H389V35.4279H392.175L391.133 49.2295H394.171L395.195 35.4279H397.519L396.478 49.2295ZM396.357 20.0772H398.682L397.953 29.6043H395.63L396.357 20.0772ZM445.306 11.9202C445.081 11.9168 444.857 11.9533 444.635 12.0291C444.451 12.0888 444.273 12.2088 444.11 12.3839C443.968 12.5374 443.849 12.7566 443.762 13.0218C443.673 13.3165 443.63 13.6541 443.636 13.9954C443.637 14.2607 443.669 14.522 443.73 14.7601C443.798 15.0286 443.898 15.2624 444.021 15.4428C444.17 15.6611 444.339 15.8246 444.518 15.9251C444.747 16.0543 444.984 16.1156 445.222 16.1071C445.649 16.1696 446.075 15.9826 446.447 15.5703C446.562 15.4367 446.658 15.2492 446.726 15.025C446.794 14.8007 446.832 14.5469 446.836 14.2868H449.999C450.013 15.2718 449.874 16.2421 449.6 17.0722C449.33 17.8567 448.972 18.5133 448.554 18.9936C448.099 19.5148 447.605 19.8927 447.089 20.1132C446.548 20.3553 445.994 20.4774 445.438 20.477C444.783 20.485 444.13 20.3508 443.491 20.0767C442.939 19.8484 442.408 19.4552 441.918 18.9111C441.501 18.4489 441.142 17.8114 440.867 17.0453C440.61 16.3066 440.476 15.4326 440.482 14.5411C440.467 13.5105 440.646 12.5042 440.985 11.7102C441.37 10.8763 441.87 10.2726 442.425 9.9696C441.925 9.60204 441.48 8.9982 441.13 8.21275C440.83 7.54325 440.663 6.68637 440.661 5.79841C440.652 4.92313 440.776 4.06219 441.017 3.32232C441.269 2.5802 441.609 1.9654 442.008 1.52897C442.479 1.01357 442.989 0.644866 443.519 0.436343C444.15 0.178562 444.793 0.0533798 445.438 0.0629629C446.012 0.0564386 446.585 0.194208 447.141 0.472838C447.639 0.713788 448.112 1.11705 448.54 1.66541C448.923 2.15898 449.246 2.80824 449.487 3.56824C449.726 4.34056 449.848 5.22695 449.839 6.12687H446.676C446.681 5.85847 446.645 5.59309 446.573 5.36446C446.5 5.13582 446.394 4.95424 446.268 4.84279C445.944 4.54826 445.588 4.40794 445.231 4.43347C445.01 4.42379 444.79 4.48236 444.578 4.60697C444.42 4.70164 444.272 4.85283 444.142 5.05278C444.036 5.21751 443.952 5.4294 443.898 5.6704C443.849 5.88877 443.824 6.12407 443.823 6.36213C443.821 6.63064 443.857 6.89494 443.928 7.12615C443.998 7.35737 444.1 7.5466 444.222 7.67317C444.554 8.02013 444.929 8.18402 445.306 8.14706H446.948V11.9162L445.306 11.9202ZM419.49 0.00344673V8.0516H419.248C418.388 8.02337 417.532 8.302 416.724 8.8736C416.012 9.39002 415.366 10.2023 414.832 11.2537C414.288 12.3513 413.854 13.6363 413.553 15.0425C413.208 16.654 412.984 18.3533 412.888 20.0885C413.363 19.0279 413.945 18.1666 414.598 17.5573C415.29 16.9276 416.047 16.6121 416.811 16.6348C417.733 16.5937 418.642 17.0522 419.437 17.9588C420.196 18.8605 420.837 20.0882 421.312 21.5472C421.838 23.1713 422.218 24.9569 422.436 26.8278C422.689 28.9269 422.813 31.0764 422.808 33.232C422.817 35.4788 422.642 37.7142 422.289 39.854C421.974 41.7877 421.476 43.5901 420.82 45.1684C420.173 46.7067 419.355 47.9404 418.427 48.7768C417.499 49.6131 416.485 50.0303 415.462 49.997C414.37 50.0296 413.291 49.5463 412.317 48.5889C411.375 47.6362 410.559 46.2768 409.932 44.6153C409.24 42.7605 408.727 40.676 408.421 38.4644C408.057 35.887 407.879 33.2238 407.894 30.5515V26.7953C407.874 23.1261 408.119 19.4695 408.62 15.9313C409.045 12.8766 409.763 10.0044 410.736 7.46487C411.644 5.13999 412.818 3.25801 414.167 1.9686C415.622 0.618402 417.22 -0.0544779 418.833 0.00344673H419.49ZM415.29 24.4837C414.712 24.4522 414.151 24.8614 413.727 25.6235C413.301 26.4013 412.977 27.3677 412.785 28.4404V31.8603C412.785 35.304 413.021 37.8746 413.494 39.5722C413.966 41.2697 414.588 42.1192 415.36 42.1207C415.744 42.1251 416.118 41.8964 416.431 41.4666C416.773 40.9875 417.054 40.3622 417.252 39.639C417.494 38.7655 417.668 37.828 417.77 36.8563C417.896 35.6987 417.956 34.5182 417.952 33.3353C417.957 32.135 417.893 30.9373 417.762 29.7643C417.655 28.7828 417.471 27.8387 417.217 26.9648C417.008 26.2414 416.719 25.6173 416.37 25.1378C416.054 24.7088 415.676 24.4803 415.29 24.4837V24.4837ZM435.978 0.00344673V8.0516H435.736C434.876 8.02337 434.021 8.302 433.213 8.8736C432.5 9.39002 431.854 10.2023 431.32 11.2537C430.776 12.3513 430.343 13.6363 430.042 15.0425C429.696 16.654 429.472 18.3533 429.376 20.0885C429.852 19.0279 430.434 18.1666 431.087 17.5573C431.779 16.9276 432.535 16.6121 433.299 16.6348C434.221 16.5937 435.131 17.0522 435.926 17.9588C436.684 18.8605 437.326 20.0882 437.801 21.5472C438.327 23.1713 438.707 24.9569 438.924 26.8278C439.177 28.9269 439.302 31.0764 439.296 33.232C439.306 35.479 439.132 37.7148 438.779 39.8551C438.464 41.7888 437.966 43.5912 437.31 45.1695C436.663 46.7078 435.845 47.9415 434.917 48.7779C433.989 49.6142 432.975 50.0315 431.952 49.9982C430.86 50.0307 429.781 49.5475 428.807 48.59C427.865 47.6374 427.049 46.2779 426.422 44.6164C425.729 42.7615 425.216 40.6767 424.909 38.4644C424.545 35.887 424.367 33.2238 424.382 30.5515V26.7953C424.362 23.1261 424.606 19.4695 425.108 15.9313C425.533 12.8765 426.251 10.0043 427.225 7.46487C428.132 5.13999 429.307 3.25801 430.655 1.9686C432.111 0.618402 433.708 -0.0544779 435.321 0.00344673H435.978ZM431.779 24.4837C431.201 24.4522 430.64 24.8614 430.216 25.6235C429.789 26.4013 429.466 27.3677 429.274 28.4404V31.8603C429.274 35.304 429.51 37.8746 429.983 39.5722C430.455 41.2697 431.077 42.1192 431.849 42.1207C432.232 42.1251 432.607 41.8964 432.92 41.4666C433.262 40.9875 433.543 40.3622 433.74 39.639C433.982 38.7655 434.157 37.828 434.259 36.8563C434.384 35.6987 434.445 34.5182 434.44 33.3353C434.445 32.134 434.382 30.9353 434.25 29.7615C434.143 28.78 433.959 27.8359 433.705 26.962C433.497 26.2386 433.207 25.6145 432.859 25.135C432.542 24.7072 432.165 24.4797 431.779 24.4837V24.4837Z" fill="url(#paint1_linear)"/>
<defs>
<linearGradient id="paint0_linear" x1="225" y1="50" x2="225" y2="191" gradientUnits="userSpaceOnUse">
<stop offset="0.270833" stop-color="#72AEEA"/>
<stop offset="0.932292" stop-color="#070707"/>
</linearGradient>
<linearGradient id="paint1_linear" x1="419.5" y1="0" x2="419.5" y2="50" gradientUnits="userSpaceOnUse">
<stop offset="0.270833" stop-color="#72AEEA"/>
<stop offset="0.932292" stop-color="#070707"/>
</linearGradient>
</defs>
</svg>
