<svg width="496" height="273" viewBox="0 0 496 273" fill="none" xmlns="http://www.w3.org/2000/svg">
<path d="M0 75.9158V270.087H26.9507C44.5325 270.087 54.3271 249.837 54.3271 214.47C54.3271 194.497 49.8253 179.38 43.0725 171.336C49.0344 163.29 52.9281 149.838 52.9281 130.975C52.9281 96.1626 42.5251 75.9126 25.6121 75.9126L0 75.9158ZM26.5855 189.786C32.0607 189.786 36.0151 196.443 36.0151 212.116C36.0151 227.65 32 234.307 26.5855 234.307H17.8253V189.783L26.5855 189.786ZM25.4914 111.7C30.6624 111.7 34.5562 118.217 34.5562 133.198C34.5562 148.039 30.6628 154.558 25.4307 154.558H17.8253V111.697L25.4914 111.7ZM94.9313 75.9158H74.3684L51.6756 270.091H69.9883L74.0035 230.146H95.053L99.1289 270.091H117.622L94.9313 75.9158ZM84.5283 126.259L91.3421 193.25H77.7751L84.5283 126.259ZM167.655 75.9158H148.31L135.839 146.648L123.367 75.9158H103.413L126.896 196.027V270.091H144.721V195.053L167.655 75.9158ZM192.2 73C172.55 73 160.869 108.923 160.869 173C160.869 237.077 172.551 273 192.2 273C211.789 273 223.531 237.077 223.531 173C223.531 108.922 211.79 73 192.2 73ZM192.14 112.666C200.292 112.666 205.037 131.807 205.037 173C205.037 214.192 200.292 233.333 192.14 233.333C183.988 233.333 179.242 214.193 179.242 173C179.242 131.806 183.988 112.667 192.14 112.667V112.666ZM285.919 75.9158H268.336V189.508L244.306 75.9158H226.846V270.087H244.367V156.912L268.458 270.088H285.919V75.9158ZM336.746 233.194H308.759V190.476H335.04V153.582H308.761V112.806H336.989V75.9158H290.936V270.087H336.745L336.746 233.194ZM390 75.9158H337.376V113.361H354.775V270.087H372.6V113.361H389.999L390 75.9158Z" fill="url(#paint0_linear)"/>
<path d="M440.652 75H388V112.797H405.408V270.997H423.243V112.797H440.651L440.652 75ZM473.298 75H452.724L430.019 271H448.341L452.358 230.68H473.419L477.497 271H496L473.298 75ZM462.889 125.817L469.706 193.437H456.132L462.889 125.817Z" fill="url(#paint1_linear)"/>
<path d="M438.031 73.9924H441.697L442.955 53.4407H447.293V44.7688H443.479L444.359 30.583H448.634V21.8602H444.883L446.161 1.00748H442.492L441.214 21.8602H438.407L439.685 1.00748H436.039L434.762 21.8602H430.299V30.5822H434.238L433.358 44.768H429V53.4407H432.835L431.576 73.9924H435.243L436.479 53.4407H439.287L438.031 73.9924ZM437.884 30.5822H440.692L439.812 44.768H437.006L437.884 30.5822ZM464.154 0.255847C462.199 0.167075 460.261 1.17107 458.497 3.18799C456.862 5.11648 455.438 7.93161 454.338 11.4092C453.158 15.2056 452.287 19.4995 451.771 24.0666C451.163 29.356 450.867 34.8223 450.891 40.3075V45.9226C450.873 49.9177 451.089 53.8992 451.53 57.7523C451.902 61.0593 452.523 64.1761 453.363 66.9492C454.124 69.4318 455.114 71.4628 456.255 72.8854C457.436 74.3169 458.745 75.0394 460.069 74.9907C461.309 75.0404 462.538 74.4167 463.663 73.1665C464.788 71.9163 465.78 70.0722 466.564 67.7728C467.36 65.4141 467.964 62.7202 468.346 59.83C468.775 56.631 468.987 53.289 468.975 49.93C468.983 46.7074 468.831 43.4941 468.525 40.356C468.261 37.5586 467.8 34.8889 467.162 32.4609C466.586 30.28 465.808 28.4449 464.889 27.0974C463.925 25.7416 462.822 25.056 461.704 25.1176C460.778 25.0835 459.86 25.5551 459.022 26.4963C458.23 27.4076 457.524 28.6954 456.947 30.2812C457.064 27.6872 457.336 25.1466 457.754 22.7372C458.119 20.6348 458.645 18.7137 459.305 17.0728C459.952 15.5006 460.735 14.2859 461.599 13.5136C462.579 12.6595 463.615 12.2432 464.658 12.2854H464.951V0.255847H464.154ZM461.168 37.826C461.591 38.543 461.942 39.4764 462.195 40.5583C462.503 41.8648 462.726 43.2762 462.855 44.7438C463.015 46.4972 463.092 48.2877 463.086 50.0821C463.092 51.8517 463.018 53.6177 462.865 55.3494C462.742 56.8022 462.53 58.2039 462.236 59.5098C461.997 60.591 461.656 61.5258 461.241 62.2421C460.861 62.8849 460.407 63.2267 459.942 63.2195C459.006 63.2195 458.252 61.9495 457.679 59.4095C457.106 56.8694 456.82 53.0251 456.821 47.8765V42.7631C457.054 41.1597 457.446 39.715 457.963 38.5526C458.478 37.4122 459.159 36.8004 459.86 36.8486C460.327 36.8443 460.784 37.1857 461.168 37.826H461.168ZM476.679 42.4629H479.549C480.035 42.3978 480.521 42.5911 480.972 43.0288C481.423 43.4666 481.828 44.1379 482.158 44.9946C482.779 46.6824 483.09 49.4478 483.09 53.291C483.097 54.6723 483.02 56.0486 482.86 57.3761C482.724 58.5105 482.5 59.5733 482.2 60.5089C481.923 61.3598 481.568 62.0465 481.163 62.5155C480.73 62.9977 480.257 63.2377 479.78 63.217C479.353 63.2292 478.932 62.9881 478.554 62.5155C478.182 62.0443 477.857 61.386 477.601 60.5858C477.323 59.7107 477.11 58.7272 476.972 57.6788C476.813 56.4877 476.736 55.2439 476.741 53.9942H470.812C470.778 57.2041 471.036 60.3934 471.566 63.3432C472.027 65.831 472.702 68.0595 473.546 69.8847C474.361 71.62 475.317 72.9342 476.354 73.7449C477.405 74.579 478.505 75.0025 479.612 74.999C480.873 75.0246 482.127 74.5415 483.321 73.5702C484.42 72.682 485.433 71.2664 486.296 69.4098C487.151 67.5286 487.826 65.2272 488.275 62.6635C488.774 59.7729 489.02 56.6676 488.997 53.5402C489.036 49.902 488.671 46.3043 487.939 43.1134C487.205 40.1133 486.073 37.7848 484.724 36.4966C485.337 35.7222 485.898 34.7341 486.389 33.5645C486.862 32.4384 487.274 31.1743 487.615 29.8021C488.29 27.0787 488.644 23.97 488.642 20.8042C488.667 17.731 488.443 14.6753 487.982 11.8063C487.575 9.33559 486.946 7.11035 486.138 5.28989C485.321 3.49755 484.353 2.14702 483.299 1.33021C482.121 0.41756 480.89 -0.0311398 479.653 0.00167824C478.505 -0.0211235 477.364 0.463279 476.29 1.43054C475.284 2.33138 474.363 3.6948 473.576 5.44373C472.795 7.20975 472.174 9.34283 471.754 11.7093C471.295 14.3 471.067 17.0901 471.083 19.9029H477.012C477.005 18.7431 477.083 17.5891 477.243 16.4942C477.38 15.5617 477.585 14.6956 477.851 13.9375C478.094 13.2506 478.398 12.7024 478.741 12.333C479.111 11.9454 479.512 11.7579 479.916 11.7839C480.32 11.8099 480.716 12.0488 481.077 12.4835C481.439 12.9496 481.751 13.6101 481.989 14.4132C482.244 15.2926 482.429 16.2785 482.534 17.3203C482.657 18.5261 482.716 19.7638 482.712 21.0049C482.765 23.5635 482.499 26.1021 481.947 28.298C481.437 30.1201 480.637 31.0309 479.548 31.0303H476.677L476.679 42.4629Z" fill="url(#paint2_linear)"/>
<defs>
<linearGradient id="paint0_linear" x1="195" y1="73" x2="195" y2="273" gradientUnits="userSpaceOnUse">
<stop stop-color="#5850F2"/>
<stop offset="1" stop-color="#050505"/>
</linearGradient>
<linearGradient id="paint1_linear" x1="442" y1="75" x2="442" y2="271" gradientUnits="userSpaceOnUse">
<stop stop-color="#5850F2"/>
<stop offset="1" stop-color="#050505"/>
</linearGradient>
<linearGradient id="paint2_linear" x1="459" y1="0" x2="459" y2="75" gradientUnits="userSpaceOnUse">
<stop stop-color="#D5D3F8"/>
<stop offset="1" stop-color="#050505"/>
<stop offset="1" stop-color="#BFBFBF"/>
</linearGradient>
</defs>
</svg>
