<svg width="316" height="255" viewBox="0 0 316 255" fill="none" xmlns="http://www.w3.org/2000/svg">
<path d="M110.425 77.7845H72.8209C73.4971 77.1574 74.1017 76.4387 74.6208 75.6446C75.7727 73.8027 76.603 71.7316 77.0677 69.5414C77.6932 66.6275 77.9861 63.636 77.9392 60.6389V52.6067C77.986 49.6192 77.6883 46.6374 77.0536 43.7359C76.5804 41.5462 75.7456 39.4759 74.5927 37.6327C73.6254 36.1181 72.3275 34.9092 70.824 34.1224C69.3085 33.3821 67.6739 33 66.0216 33C64.3693 33 62.7346 33.3821 61.2192 34.1224C59.722 34.9126 58.43 36.1212 57.4664 37.6327C56.3142 39.4743 55.4838 41.5455 55.0196 43.7359C54.3948 46.6391 54.1019 49.6201 54.148 52.6067V60.6389C54.1002 63.6369 54.3979 66.6293 55.0337 69.5414C55.5064 71.7312 56.3412 73.8016 57.4945 75.6446C58.4637 77.1612 59.7608 78.3748 61.2633 79.1707C62.7763 79.9213 64.4119 80.3089 66.0657 80.3089C67.7194 80.3089 69.355 79.9213 70.8681 79.1707C71.3013 78.9423 71.7179 78.676 72.114 78.3742L40.8524 148.798H33.5344V77.7845H17.29L18.7311 66.711H24.5531V61.2397H19.4343L20.6155 52.2902H26.353V46.7878H21.3186L23.0365 33.6324H18.1109L16.3969 46.7878H12.6281L14.3436 33.6324H9.44998L7.73449 46.7878H1.74364V52.2902H7.03131L5.85012 61.2397H0V66.711H5.14694L3.70588 77.7845H0.550252V255H33.5349V182.595H40.402L74.4027 255H113.466L68.7735 164.243L110.425 77.7845ZM69.9519 61.8726C69.969 63.6005 69.8798 65.3277 69.685 67.0417C69.5616 68.2083 69.3015 69.3513 68.9115 70.4412C68.661 71.1761 68.2382 71.8209 67.688 72.3074C67.216 72.6846 66.6497 72.8838 66.0706 72.8765C65.4781 72.8853 64.8979 72.686 64.4109 72.3063C63.8514 71.8229 63.4189 71.178 63.1594 70.4401C62.7579 69.3525 62.4883 68.2091 62.3577 67.0407C62.1522 65.3276 62.0582 63.6 62.0762 61.8716V51.3102C62.0579 49.6023 62.152 47.8952 62.3577 46.2028C62.4895 45.0519 62.7539 43.9251 63.1444 42.8508C63.3985 42.1183 63.8265 41.4783 64.3818 41.0005C64.862 40.6298 65.4307 40.4313 66.0131 40.4313C66.5955 40.4313 67.1643 40.6298 67.6444 41.0005C68.1994 41.4786 68.6274 42.1186 68.8819 42.8508C69.2725 43.925 69.5371 45.0518 69.669 46.2028C69.8748 47.8952 69.9689 49.6023 69.9505 51.3102L69.9519 61.8726ZM12.3682 77.7845H8.62343L10.0425 66.711H13.8093L12.3682 77.7845ZM14.5125 61.2397H10.7461L11.9273 52.2902H15.696L14.5125 61.2397ZM113.921 255H198.691V221.329H146.906V182.342H195.539V148.671H146.906V111.455H199.142V77.7845H113.921V255ZM283.465 77.7845V181.456L238.998 77.7845H206.688V255H239.111V151.709L283.691 255H316V77.7845H283.465ZM31.3198 75.2337C32.3414 76.7998 33.6693 78.0811 35.2011 78.9787C36.7863 79.8819 38.5431 80.3377 40.3199 80.3068C41.9848 80.3382 43.6343 79.9448 45.1444 79.1561C46.6545 78.3674 47.986 77.2039 49.0386 75.7533C50.1066 74.2651 50.918 72.5656 51.431 70.7424C52.0059 68.7242 52.291 66.6158 52.2754 64.4967C52.2849 62.4635 52.0817 60.4361 51.6702 58.4563C51.3157 56.6916 50.697 55.0076 49.8407 53.476C49.0683 52.1002 48.0251 50.9424 46.7916 50.0918C45.4976 49.2367 44.0172 48.8042 42.5167 48.8428C41.2736 48.8213 40.0424 49.1187 38.9168 49.7126C37.854 50.2875 36.9065 51.0999 36.1323 52.1004C36.2887 50.4636 36.6534 48.8606 37.2154 47.3406C37.7055 46.0143 38.4112 44.8024 39.2964 43.767C40.1653 42.7756 41.2164 42.0095 42.376 41.5222C43.6911 40.9833 45.083 40.7207 46.4825 40.7473H46.876V33.1582H45.8074C43.1827 33.1023 40.5825 33.7357 38.2137 35.008C36.0192 36.2247 34.1077 38.0006 32.6314 40.1945C31.0459 42.589 29.8756 45.2977 29.1817 48.1792C28.366 51.5161 27.9683 54.9647 28 58.4251V61.9681C27.9765 64.4885 28.2653 67.0003 28.858 69.4311C29.3578 71.5176 30.1921 73.484 31.3198 75.2337V75.2337ZM35.9606 59.9748C36.2733 58.9633 36.7991 58.0519 37.4931 57.3185C38.1837 56.5993 39.0976 56.2133 40.0385 56.2436C40.6669 56.2403 41.2809 56.4557 41.7962 56.8602C42.3636 57.3124 42.8344 57.9011 43.1744 58.5834C43.5877 59.4078 43.8865 60.2984 44.0605 61.2244C44.2744 62.3306 44.378 63.4602 44.3696 64.5922C44.3775 65.7086 44.2786 66.8226 44.0746 67.9152C43.9085 68.8317 43.624 69.716 43.2302 70.5398C42.9083 71.222 42.4512 71.8118 41.8942 72.2636C41.3846 72.669 40.7748 72.8847 40.1506 72.8802C38.8943 72.8802 37.8819 72.079 37.1132 70.4765C36.3445 68.8741 35.9601 66.4497 35.9601 63.2034L35.9606 59.9748Z" fill="url(#paint0_linear)"/>
<path d="M89.2484 19.167C88.398 19.1616 87.5488 19.2205 86.7113 19.3431C86.014 19.4396 85.3415 19.6336 84.7225 19.9167C84.1885 20.1649 83.7372 20.5192 83.4091 20.9477C83.0729 21.4241 82.9071 21.9699 82.9307 22.5214C82.9355 22.9503 83.0567 23.3728 83.2854 23.7576C83.5436 24.1916 83.9207 24.5695 84.3865 24.8612C84.9506 25.2141 85.5879 25.4784 86.2669 25.6408C87.1312 25.8499 88.0287 25.9494 88.9288 25.9358C90.543 26.0364 92.1567 25.7342 93.562 25.0681C93.9973 24.852 94.3602 24.5487 94.6174 24.186C94.8746 23.8234 95.0179 23.413 95.0342 22.9925H106.996C107.049 24.5847 106.523 26.1532 105.488 27.495C104.466 28.7631 103.114 29.8245 101.53 30.6007C99.8116 31.4437 97.9421 32.0546 95.9919 32.4104C93.9434 32.8023 91.8477 32.9999 89.7454 32.9994C87.2689 33.0126 84.7984 32.7955 82.3802 32.3523C80.2927 31.983 78.287 31.3474 76.4346 30.4682C74.8552 29.7209 73.497 28.6905 72.4593 27.4523C71.4867 26.2581 70.9786 24.8454 71.0035 23.4045C70.945 21.7384 71.6204 20.1116 72.9036 18.8285C74.3601 17.4804 76.2497 16.5045 78.3512 16.015C76.4591 15.4208 74.7757 14.4447 73.4531 13.1752C72.3161 12.093 71.686 10.7079 71.6777 9.27262C71.645 7.85766 72.1143 6.46589 73.0273 5.2702C73.9798 4.07052 75.2639 3.07671 76.7728 2.3714C78.5541 1.53811 80.4821 0.941838 82.4864 0.604343C84.8729 0.187882 87.3066 -0.0144619 89.7454 0.000803283C91.9184 -0.00970108 94.0839 0.213302 96.1878 0.664243C98.0699 1.0534 99.8584 1.70527 101.477 2.59194C102.926 3.38938 104.149 4.43856 105.061 5.66681C105.962 6.91518 106.423 8.34799 106.392 9.80265H94.43C94.4502 9.36875 94.3142 8.93968 94.0393 8.57006C93.7645 8.20044 93.3633 7.90698 92.8867 7.72702C91.6611 7.251 90.3163 7.02418 88.9639 7.06539C88.1288 7.04957 87.2961 7.14393 86.4968 7.34492C85.8976 7.49789 85.3382 7.74228 84.8473 8.06554C84.4469 8.3316 84.1303 8.67416 83.9246 9.06388C83.7396 9.41682 83.6428 9.79719 83.64 10.182C83.6333 10.616 83.7705 11.0432 84.0367 11.4169C84.3029 11.7906 84.6878 12.0965 85.1494 12.3012C86.4059 12.8618 87.8234 13.1267 89.2484 13.0672H95.46V19.1598L89.2484 19.167Z" fill="url(#paint1_linear)"/>
<defs>
<linearGradient id="paint0_linear" x1="158" y1="33" x2="158" y2="255" gradientUnits="userSpaceOnUse">
<stop offset="0.296875" stop-color="#9D3333"/>
<stop offset="0.916667" stop-color="#1E1B1B"/>
</linearGradient>
<linearGradient id="paint1_linear" x1="89" y1="0" x2="89" y2="33" gradientUnits="userSpaceOnUse">
<stop offset="0.296875" stop-color="#9D3333"/>
<stop offset="0.916667" stop-color="#1E1B1B"/>
</linearGradient>
</defs>
</svg>
