<svg width="478" height="291" viewBox="0 0 478 291" fill="none" xmlns="http://www.w3.org/2000/svg">
<path d="M19 2.94497V199.058H42.1967V124.395H43.5426L63.8891 199.058H90.2525L66.6582 120.753C80.2754 112.769 88.2715 92.7373 88.2715 65.0015C88.2715 26.4794 74.496 2.94564 52.17 2.94564L19 2.94497ZM52.3305 40.6241C59.139 40.6241 64.6018 48.3286 64.6018 64.9981C64.6018 81.8077 59.2181 89.5122 52.3305 89.5122H42.1967V40.6267L52.3305 40.6241ZM115.567 2.94497H92.3707V199.058H115.567V2.94497ZM160.131 0C135.115 0 119.912 35.8638 119.912 101.001C119.912 166.139 135.115 202 160.131 202C176.282 202 187.999 186.451 193.857 159.135L174.46 141.485C171.215 155.356 166.621 161.937 160.21 161.937C150.631 161.937 143.901 143.864 143.901 101.001C143.901 59.2542 150.076 40.0659 160.21 40.0659C166.623 40.0659 171.216 46.7894 174.223 60.518L194.251 44.2686C188.632 15.8326 176.281 0 160.131 0ZM218.934 2.94497H195.737V199.058H218.934V118.932H246.566V199.058H269.763V2.94497H246.566V81.1101H218.934V2.94497ZM339.883 2.94497H271.399V40.7668H294.042V199.058H317.239V40.7668H339.881L339.883 2.94497ZM401.144 161.797H364.726V118.649H398.927V81.3902H364.726V40.2066H401.461V2.94497H341.529V199.058H401.144V161.797ZM406.747 2.94497V199.058H429.944V124.395H431.29L451.637 199.058H478L454.406 120.753C468.023 112.769 476.019 92.7373 476.019 65.0015C476.019 26.4794 462.243 2.94564 439.917 2.94564L406.747 2.94497ZM440.078 40.6241C446.886 40.6241 452.349 48.3286 452.349 64.9981C452.349 81.8077 446.965 89.5122 440.078 89.5122H429.944V40.6267L440.078 40.6241Z" fill="url(#paint0_linear)"/>
<path d="M9.68506 290.091H13.6174L14.9667 273.805H19.6171V266.933H15.5274L16.4711 255.692H21.0552V248.78H17.0329L18.4054 232.255H14.4701L13.1006 248.78H10.0895L11.4601 232.255H7.55024L6.17961 248.78H1.39349V255.691H5.61779L4.67406 266.933H0V273.805H4.11224L2.76299 290.091H6.69645L8.0236 273.805H11.0332L9.68506 290.091ZM9.52765 255.691H12.5387L11.595 266.933H8.58579L9.52765 255.691ZM72.9208 246.066C72.6296 246.062 72.3388 246.105 72.052 246.194C71.8133 246.265 71.5832 246.406 71.3714 246.613C71.1885 246.794 71.0339 247.053 70.9216 247.366C70.8066 247.713 70.7498 248.112 70.7578 248.515C70.7595 248.828 70.801 249.136 70.8792 249.417C70.9677 249.734 71.0968 250.01 71.2563 250.223C71.4496 250.48 71.668 250.673 71.9006 250.792C72.1965 250.944 72.5038 251.016 72.8121 251.006C73.3647 251.08 73.9172 250.859 74.3982 250.373C74.5473 250.215 74.6716 249.994 74.7598 249.729C74.8479 249.465 74.897 249.165 74.9027 248.858H78.9988C79.0167 250.021 78.8367 251.166 78.4823 252.145C78.1324 253.071 77.6692 253.846 77.1271 254.412C76.5385 255.028 75.8983 255.473 75.2306 255.734C74.5291 256.019 73.8115 256.163 73.0917 256.163C72.2437 256.172 71.3977 256.014 70.5697 255.69C69.8549 255.421 69.168 254.957 68.5338 254.315C67.9929 253.77 67.5278 253.017 67.1725 252.113C66.8394 251.242 66.6654 250.21 66.6741 249.159C66.6541 247.942 66.8852 246.755 67.3243 245.818C67.8233 244.834 68.4704 244.122 69.19 243.764C68.5422 243.33 67.9657 242.618 67.5128 241.691C67.1235 240.901 66.9077 239.89 66.9049 238.842C66.8938 237.809 67.0543 236.793 67.3667 235.92C67.6929 235.045 68.1326 234.319 68.6492 233.804C69.2593 233.196 69.9196 232.761 70.606 232.515C71.4232 232.211 72.2566 232.063 73.0917 232.074C73.8357 232.067 74.5772 232.229 75.2977 232.558C75.9421 232.842 76.5545 233.318 77.1087 233.965C77.605 234.548 78.0239 235.314 78.3362 236.211C78.6447 237.122 78.8026 238.168 78.7919 239.23H74.695C74.7018 238.913 74.6552 238.6 74.5611 238.33C74.467 238.06 74.3297 237.846 74.1666 237.714C73.7469 237.367 73.2864 237.201 72.8233 237.231C72.5374 237.22 72.2522 237.289 71.9785 237.436C71.7733 237.548 71.5816 237.726 71.4133 237.962C71.2763 238.157 71.1679 238.407 71.0974 238.691C71.0341 238.949 71.0009 239.226 70.9999 239.507C70.9976 239.824 71.0446 240.136 71.1357 240.409C71.2269 240.682 71.3587 240.905 71.5168 241.054C71.947 241.464 72.4324 241.657 72.9204 241.614H75.0473V246.061L72.9208 246.066ZM39.4865 232.004V241.501H39.1731C38.0594 241.468 36.9518 241.796 35.9053 242.471C34.9824 243.08 34.146 244.039 33.4545 245.279C32.75 246.575 32.1883 248.091 31.7983 249.75C31.3512 251.652 31.0609 253.657 30.9363 255.704C31.5523 254.453 32.3063 253.437 33.1521 252.718C34.0478 251.975 35.0276 251.602 36.017 251.629C37.2111 251.581 38.3892 252.122 39.419 253.191C40.4012 254.255 41.232 255.704 41.8473 257.426C42.5284 259.342 43.0204 261.449 43.3022 263.657C43.6296 266.134 43.7911 268.67 43.7835 271.214C43.796 273.865 43.5693 276.503 43.1119 279.028C42.7044 281.309 42.0592 283.436 41.2094 285.299C40.3718 287.114 39.3122 288.57 38.1104 289.557C36.9086 290.543 35.5958 291.036 34.2708 290.996C32.8568 291.035 31.4587 290.465 30.1972 289.335C28.9781 288.211 27.9213 286.607 27.1085 284.646C26.2118 282.457 25.5487 279.998 25.1517 277.388C24.6802 274.347 24.4505 271.204 24.4692 268.051V263.618C24.4438 259.289 24.7602 254.974 25.4092 250.799C25.9602 247.194 26.89 243.805 28.1501 240.809C29.3254 238.065 30.8467 235.844 32.5929 234.323C34.4778 232.73 36.5471 231.936 38.6361 232.004H39.4865ZM34.0475 260.891C33.2992 260.854 32.5726 261.336 32.0236 262.236C31.4712 263.153 31.0526 264.294 30.8036 265.56V269.595C30.8036 273.659 31.1096 276.692 31.7215 278.695C32.3334 280.698 33.1391 281.701 34.1385 281.702C34.635 281.708 35.12 281.438 35.5253 280.931C35.9684 280.365 36.3321 279.627 36.5882 278.774C36.9016 277.743 37.1278 276.637 37.2598 275.49C37.4223 274.124 37.501 272.731 37.4948 271.336C37.5015 269.919 37.4189 268.506 37.2486 267.122C37.1101 265.964 36.8724 264.85 36.5436 263.819C36.2731 262.965 35.8985 262.228 35.4469 261.663C35.0366 261.156 34.5478 260.887 34.0475 260.891V260.891ZM60.8404 232.004V241.501H60.5271C59.4134 241.468 58.3057 241.796 57.2592 242.471C56.3363 243.08 55.4999 244.039 54.8084 245.279C54.1039 246.575 53.5422 248.091 53.1522 249.75C52.7051 251.652 52.4148 253.657 52.2902 255.704C52.9063 254.453 53.6602 253.437 54.506 252.718C55.4017 251.975 56.3815 251.602 57.3709 251.629C58.565 251.581 59.7432 252.122 60.7729 253.191C61.7552 254.255 62.586 255.704 63.2012 257.426C63.8823 259.342 64.3743 261.449 64.6562 263.657C64.9835 266.134 65.1451 268.67 65.1374 271.214C65.1506 273.865 64.9245 276.503 64.4676 279.029C64.0602 281.311 63.4149 283.438 62.5652 285.3C61.7276 287.115 60.668 288.571 59.4662 289.558C58.2643 290.545 56.9516 291.037 55.6266 290.998C54.2126 291.036 52.8145 290.466 51.553 289.336C50.3338 288.212 49.2771 286.608 48.4643 284.647C47.5666 282.459 46.9026 279.998 46.5049 277.388C46.0333 274.347 45.8036 271.204 45.8224 268.051V263.618C45.7969 259.289 46.1133 254.974 46.7624 250.799C47.3136 247.194 48.2436 243.805 49.504 240.809C50.6794 238.065 52.2006 235.844 53.9468 234.323C55.8317 232.73 57.901 231.936 59.99 232.004H60.8404ZM55.4017 260.891C54.6535 260.854 53.9269 261.336 53.3778 262.236C52.8255 263.153 52.4069 264.294 52.1579 265.56V269.595C52.1579 273.659 52.4639 276.692 53.0758 278.695C53.6877 280.698 54.4934 281.701 55.4928 281.702C55.9893 281.708 56.4743 281.438 56.8796 280.931C57.3227 280.365 57.6864 279.627 57.9425 278.774C58.2559 277.743 58.4821 276.637 58.6141 275.49C58.7765 274.124 58.8553 272.731 58.8491 271.336C58.8556 269.918 58.7728 268.504 58.6021 267.119C58.4637 265.96 58.2259 264.846 57.8971 263.815C57.6267 262.962 57.252 262.225 56.8005 261.659C56.3902 261.154 55.9016 260.886 55.4017 260.891V260.891Z" fill="url(#paint1_linear)"/>
<defs>
<linearGradient id="paint0_linear" x1="248.5" y1="0" x2="248.5" y2="202" gradientUnits="userSpaceOnUse">
<stop offset="0.270833" stop-color="#72AEEA"/>
<stop offset="0.932292" stop-color="#070707"/>
</linearGradient>
<linearGradient id="paint1_linear" x1="39.5" y1="232" x2="39.5" y2="291" gradientUnits="userSpaceOnUse">
<stop offset="0.270833" stop-color="#72AEEA"/>
<stop offset="0.932292" stop-color="#070707"/>
</linearGradient>
</defs>
</svg>
