<svg width="532" height="243" viewBox="0 0 532 243" fill="none" xmlns="http://www.w3.org/2000/svg">
<path d="M0 67.5951V240.408H28.8857C47.7297 240.408 58.2275 222.385 58.2275 190.908C58.2275 173.133 53.4025 159.678 46.1649 152.519C52.5548 145.358 56.7281 133.386 56.7281 116.598C56.7281 85.6147 45.5782 67.5922 27.4509 67.5922L0 67.5951ZM28.4942 168.939C34.3625 168.939 38.6008 174.864 38.6008 188.813C38.6008 202.638 34.2974 208.563 28.4942 208.563H19.1051V168.937L28.4942 168.939ZM27.3216 99.4431C32.8638 99.4431 37.0371 105.243 37.0371 118.576C37.0371 131.784 32.8642 137.586 27.2565 137.586H19.1051V99.4402L27.3216 99.4431ZM101.747 67.5951H79.7077L55.3857 240.411H75.0131L79.3165 204.86H101.877L106.246 240.411H126.067L101.747 67.5951ZM90.597 112.401L97.9 172.022H83.359L90.597 112.401ZM179.692 67.5951H158.958L145.591 130.546L132.224 67.5951H110.837L136.006 174.494V240.411H155.111V173.627L179.692 67.5951ZM205.999 65C184.938 65 172.419 96.9712 172.419 154C172.419 211.028 184.939 243 205.999 243C226.995 243 239.58 211.029 239.58 154C239.58 96.9704 226.995 65 205.999 65ZM205.934 100.303C214.672 100.303 219.758 117.338 219.758 154C219.758 190.661 214.672 207.696 205.934 207.696C197.197 207.696 192.111 190.662 192.111 154C192.111 117.337 197.197 100.304 205.934 100.304V100.303ZM306.446 67.5951H287.601V168.692L261.846 67.5951H243.132V240.408H261.911V139.681L287.732 240.408H306.446V67.5951ZM360.922 207.573H330.927V169.554H359.095V136.718H330.928V100.428H361.183V67.5951H311.823V240.408H360.921L360.922 207.573ZM418 67.5951H361.598V100.921H380.246V240.408H399.351V100.921H417.999L418 67.5951Z" fill="url(#paint0_linear)"/>
<path d="M472.552 67H416V100.554H434.698V240.997H453.854V100.554H472.552L472.552 67ZM507.616 67H485.518L461.131 241H480.81L485.125 205.205H507.746L512.126 241H532L507.616 67ZM496.436 112.113L503.759 172.143H489.179L496.436 112.113Z" fill="url(#paint1_linear)"/>
<path d="M469.633 66.0999H473.544L474.886 47.7403H479.512V39.9935H475.445L476.383 27.3208H480.943V19.5284H476.942L478.305 0.900019H474.392L473.029 19.5284H470.034L471.397 0.900019H467.508L466.146 19.5284H461.386V27.3201H465.588L464.649 39.9927H460V47.7403H464.09L462.748 66.0999H466.659L467.978 47.7403H470.973L469.633 66.0999ZM469.476 27.3201H472.471L471.532 39.9927H468.539L469.476 27.3201ZM497.498 0.228557C495.412 0.149254 493.345 1.04616 491.463 2.84793C489.719 4.57072 488.2 7.08557 487.027 10.1922C485.768 13.5837 484.839 17.4196 484.289 21.4995C483.641 26.2247 483.325 31.1079 483.35 36.008V41.0242C483.332 44.5932 483.561 48.1499 484.032 51.5921C484.429 54.5463 485.092 57.3306 485.988 59.808C486.799 62.0257 487.855 63.8401 489.072 65.111C490.332 66.3898 491.728 67.0352 493.14 66.9917C494.463 67.0361 495.774 66.4789 496.974 65.3621C498.174 64.2453 499.232 62.5978 500.068 60.5437C500.917 58.4366 501.562 56.0301 501.969 53.4481C502.426 50.5903 502.653 47.6048 502.64 44.6041C502.648 41.7253 502.487 38.8547 502.16 36.0514C501.878 33.5524 501.387 31.1675 500.706 28.9984C500.092 27.0501 499.262 25.4108 498.281 24.207C497.253 22.9959 496.076 22.3833 494.884 22.4384C493.896 22.408 492.918 22.8292 492.023 23.67C491.179 24.4841 490.426 25.6346 489.81 27.0512C489.935 24.7339 490.225 22.4643 490.671 20.3119C491.06 18.4337 491.621 16.7176 492.325 15.2517C493.015 13.8472 493.851 12.7621 494.772 12.0721C495.817 11.3092 496.923 10.9373 498.035 10.9749H498.348V0.228557H497.498ZM494.313 33.7912C494.764 34.4317 495.138 35.2656 495.408 36.2321C495.737 37.3992 495.974 38.6601 496.112 39.9711C496.282 41.5375 496.365 43.137 496.358 44.74C496.364 46.3209 496.286 47.8985 496.123 49.4455C495.991 50.7433 495.765 51.9955 495.452 53.1621C495.196 54.1279 494.833 54.9631 494.39 55.6029C493.986 56.1772 493.501 56.4826 493.005 56.4761C492.007 56.4761 491.202 55.3415 490.591 53.0725C489.98 50.8034 489.675 47.3691 489.676 42.7697V38.2017C489.925 36.7693 490.343 35.4788 490.894 34.4403C491.443 33.4216 492.169 32.875 492.917 32.9181C493.416 32.9143 493.903 33.2192 494.313 33.7912H494.313ZM510.857 37.9335H513.919C514.438 37.8754 514.956 38.0481 515.437 38.4391C515.918 38.8301 516.35 39.4299 516.702 40.1952C517.365 41.7029 517.696 44.1734 517.696 47.6066C517.704 48.8406 517.621 50.0701 517.451 51.256C517.306 52.2693 517.067 53.2188 516.747 54.0546C516.451 54.8148 516.073 55.4282 515.64 55.8472C515.179 56.278 514.674 56.4923 514.165 56.4738C513.71 56.4847 513.261 56.2694 512.858 55.8472C512.461 55.4262 512.114 54.8381 511.841 54.1233C511.544 53.3415 511.317 52.463 511.17 51.5264C511.001 50.4624 510.918 49.3512 510.924 48.2348H504.599C504.564 51.1024 504.838 53.9514 505.404 56.5866C505.896 58.8091 506.615 60.7999 507.516 62.4304C508.385 63.9806 509.405 65.1545 510.511 65.8788C511.632 66.6239 512.805 67.0022 513.986 66.9991C515.331 67.022 516.668 66.5904 517.942 65.7227C519.115 64.9293 520.195 63.6646 521.116 62.0061C522.028 60.3256 522.748 58.2697 523.226 55.9794C523.759 53.3971 524.021 50.623 523.997 47.8292C524.038 44.5791 523.649 41.3652 522.868 38.5146C522.085 35.8345 520.878 33.7544 519.439 32.6037C520.092 31.9119 520.691 31.0291 521.215 29.9843C521.72 28.9783 522.159 27.8491 522.523 26.6232C523.242 24.1903 523.621 21.4132 523.618 18.5851C523.645 15.8397 523.406 13.1099 522.914 10.547C522.48 8.33979 521.809 6.35191 520.947 4.72564C520.076 3.12447 519.043 1.91801 517.918 1.18832C516.663 0.37302 515.349 -0.0278182 514.03 0.00149923C512.805 -0.0188703 511.589 0.413862 510.442 1.27795C509.37 2.0827 508.387 3.30069 507.548 4.86307C506.715 6.44071 506.053 8.34626 505.604 10.4603C505.115 12.7746 504.871 15.2671 504.888 17.78H511.213C511.205 16.7438 511.288 15.713 511.459 14.7348C511.605 13.9018 511.825 13.1281 512.107 12.4508C512.367 11.8372 512.691 11.3475 513.057 11.0175C513.452 10.6712 513.88 10.5037 514.311 10.5269C514.741 10.5502 515.164 10.7636 515.549 11.152C515.935 11.5683 516.268 12.1584 516.521 12.8758C516.794 13.6614 516.991 14.5421 517.102 15.4728C517.234 16.55 517.297 17.6556 517.293 18.7644C517.349 21.0501 517.065 23.3179 516.477 25.2796C515.933 26.9073 515.08 27.7209 513.918 27.7204H510.856L510.857 37.9335Z" fill="url(#paint2_linear)"/>
<defs>
<linearGradient id="paint0_linear" x1="209" y1="65" x2="209" y2="243" gradientUnits="userSpaceOnUse">
<stop stop-color="#5850F2"/>
<stop offset="1" stop-color="#050505"/>
</linearGradient>
<linearGradient id="paint1_linear" x1="474" y1="67" x2="474" y2="241" gradientUnits="userSpaceOnUse">
<stop stop-color="#5850F2"/>
<stop offset="1" stop-color="#050505"/>
</linearGradient>
<linearGradient id="paint2_linear" x1="492" y1="0" x2="492" y2="67" gradientUnits="userSpaceOnUse">
<stop stop-color="#5850F2"/>
<stop offset="1" stop-color="#050505"/>
<stop offset="1" stop-color="#050505"/>
</linearGradient>
</defs>
</svg>
