<svg width="499" height="433" viewBox="0 0 499 433" fill="none" xmlns="http://www.w3.org/2000/svg">
<path d="M19.1214 89.9633H26.885L29.5489 64.9741H38.7303V54.4298H30.6559L32.5191 37.181H41.5696V26.5747H33.6283L36.3381 1.21943H28.5685L25.8646 26.5747H19.9198L22.6258 1.21943H14.9065L12.2005 26.5747H2.75118V37.18H11.0913L9.22807 54.4298H0V64.9741H8.11886L5.455 89.9633H13.2209L15.8411 64.9741H21.783L19.1214 89.9633ZM18.8106 37.18H24.7554L22.8922 54.4298H16.951L18.8106 37.18ZM74.4328 0.305494C70.2924 0.197554 66.1909 1.41833 62.4543 3.87074C58.9927 6.21564 55.9775 9.63862 53.6487 13.8671C51.1505 18.4833 49.307 23.7044 48.2144 29.2575C46.9281 35.689 46.301 42.3356 46.3512 49.0052V55.8327C46.3143 60.6904 46.7698 65.5316 47.7046 70.2167C48.4925 74.2378 49.808 78.0274 51.5864 81.3994C53.1979 84.418 55.2926 86.8875 57.7089 88.6173C60.2094 90.3579 62.9806 91.2365 65.7834 91.1772C68.4095 91.2376 71.0114 90.4793 73.3935 88.9591C75.7756 87.439 77.8758 85.1967 79.5363 82.4008C81.2213 79.5328 82.5013 76.2572 83.3101 72.743C84.217 68.8532 84.6667 64.7896 84.642 60.7053C84.6572 56.787 84.3371 52.8798 83.6882 49.0641C83.1289 45.6627 82.1531 42.4166 80.8024 39.4643C79.5827 36.8125 77.9359 34.5812 75.9889 32.9427C73.9479 31.2942 71.6126 30.4605 69.2456 30.5354C67.2847 30.494 65.3427 31.0673 63.5672 32.2118C61.8909 33.32 60.3966 34.8859 59.1755 36.814C59.4223 33.6598 59.9974 30.5707 60.8833 27.6411C61.6564 25.0847 62.7698 22.7488 64.1665 20.7536C65.537 18.8419 67.1949 17.3649 69.0244 16.4259C71.0986 15.3874 73.294 14.8812 75.5013 14.9325H76.1221V0.305494H74.4328ZM68.1113 45.9879C69.0066 46.8597 69.7492 47.9946 70.2853 49.3101C70.9374 50.8987 71.4088 52.6149 71.6831 54.3993C72.0208 56.5313 72.1846 58.7084 72.1714 60.8903C72.1839 63.042 72.0276 65.1893 71.7053 67.295C71.4434 69.0615 70.9946 70.7657 70.3733 72.3536C69.8655 73.6683 69.1444 74.805 68.2659 75.6759C67.4621 76.4575 66.5002 76.8731 65.5155 76.8643C63.5339 76.8643 61.9368 75.3201 60.7242 72.2316C59.5117 69.1432 58.9059 64.4688 58.9069 58.2085V51.9909C59.4004 50.0413 60.2301 48.2847 61.3251 46.8713C62.4142 45.4847 63.8559 44.7408 65.3401 44.7994C66.3306 44.7942 67.2982 45.2092 68.1105 45.9879H68.1113ZM127.304 37.7899C127.378 32.0322 126.908 26.2856 125.907 20.6936C125.161 16.4729 123.844 12.4823 122.026 8.92939C120.5 6.01006 118.453 3.68 116.081 2.16386C113.69 0.736547 111.112 0 108.505 0C105.899 0 103.32 0.736547 100.93 2.16386C98.5684 3.68686 96.5303 6.01617 95.0104 8.92939C93.1929 12.4791 91.8832 16.471 91.1507 20.6926C90.1648 26.2878 89.7025 32.0329 89.7751 37.7889V53.2708C89.6987 59.049 90.1673 64.8164 91.1692 70.4292C91.915 74.6499 93.2318 78.6403 95.0511 82.1924C96.5797 85.1155 98.6259 87.4545 100.996 88.9884C103.383 90.4354 105.963 91.1827 108.571 91.1827C111.18 91.1827 113.76 90.4354 116.147 88.9884C118.506 87.4469 120.543 85.1087 122.066 82.1924C123.884 78.6426 125.193 74.6507 125.926 70.4292C126.913 64.8136 127.376 59.048 127.302 53.2719L127.304 37.7899ZM114.704 55.6487C114.731 58.979 114.59 62.3079 114.283 65.6115C114.088 67.8599 113.678 70.0631 113.062 72.1635C112.668 73.5797 112.001 74.8223 111.133 75.7593C110.388 76.4863 109.495 76.8704 108.582 76.8562C107.648 76.8738 106.733 76.4903 105.965 75.7593C105.082 74.8278 104.4 73.5852 103.991 72.1635C103.357 70.0672 102.932 67.8634 102.726 65.6115C102.402 62.3098 102.253 58.98 102.282 55.6487V35.2911C102.253 31.9993 102.401 28.709 102.726 25.4473C102.934 23.2288 103.352 21.057 103.968 18.9867C104.369 17.5754 105.045 16.3422 105.92 15.4215C106.678 14.7068 107.575 14.3243 108.494 14.3243C109.412 14.3243 110.31 14.7068 111.067 15.4215C111.942 16.3425 112.618 17.5755 113.019 18.9867C113.635 21.0572 114.053 23.2289 114.261 25.4473C114.585 28.709 114.734 31.9993 114.705 35.2911L114.704 55.6487Z" fill="url(#paint0_linear)"/>
<path d="M0.867937 86.3168V427.876H52.8984V297.84H55.9174L101.555 427.876H160.689L107.77 291.496C138.314 277.59 156.25 242.699 156.25 194.396C156.25 127.299 125.351 86.3168 75.2733 86.3168H0.867937ZM75.63 151.945C90.9021 151.945 103.157 165.364 103.157 194.396C103.157 223.674 91.0811 237.093 75.63 237.093H52.8984V151.945H75.63Z" fill="url(#paint1_linear)"/>
<path d="M327.802 86.3168H271.331L234.925 210.742L198.518 86.3168H140.278L208.823 297.596V427.876H260.854V295.888L327.802 86.3168ZM499 86.3168H446.791V316.382C446.791 348.1 435.248 362.98 416.781 362.98C398.313 362.98 386.769 348.098 386.769 316.382V86.3168H334.561V319.797C334.561 387.378 362.797 433 416.781 433C470.765 433 499 387.378 499 319.797V86.3168Z" fill="url(#paint2_linear)"/>
<defs>
<linearGradient id="paint0_linear" x1="63.6556" y1="0" x2="63.6556" y2="91.1827" gradientUnits="userSpaceOnUse">
<stop offset="0.046875" stop-color="#A09FA0"/>
<stop offset="0.848958" stop-color="#353535" stop-opacity="0.96"/>
</linearGradient>
<linearGradient id="paint1_linear" x1="80.7787" y1="86.3168" x2="80.7787" y2="427.876" gradientUnits="userSpaceOnUse">
<stop offset="0.046875" stop-color="#A09FA0"/>
<stop offset="0.848958" stop-color="#353535" stop-opacity="0.96"/>
</linearGradient>
<linearGradient id="paint2_linear" x1="319.639" y1="86.3168" x2="319.639" y2="433" gradientUnits="userSpaceOnUse">
<stop offset="0.046875" stop-color="#A09FA0"/>
<stop offset="0.848958" stop-color="#353535" stop-opacity="0.96"/>
</linearGradient>
</defs>
</svg>
