<svg width="478" height="184" viewBox="0 0 478 184" fill="none" xmlns="http://www.w3.org/2000/svg">
<path d="M46.7445 105.839C35.6331 105.839 27.8454 94.0129 27.8454 66C27.8454 38.7198 35.0094 26.1788 46.7624 26.1788C54.2026 26.1788 59.5267 30.5709 63.0196 39.5414L86.2538 28.9233C79.7134 10.3605 65.3898 0 46.6554 0C17.6339 0 0 23.4344 0 66C0 108.566 17.6339 132 46.6554 132C65.3898 132 78.9828 121.839 85.777 103.987L63.278 92.4409C59.5133 101.518 54.1848 105.839 46.7445 105.839V105.839ZM131.733 0C102.07 0 84.4271 23.7097 84.4271 66C84.4271 108.29 102.07 132 131.733 132C161.303 132 179.03 108.29 179.03 66C179.03 23.7097 161.303 0 131.733 0ZM131.653 105.839C119.347 105.839 112.183 93.2047 112.183 66.0178C112.183 38.8308 119.334 26.1788 131.653 26.1788C143.972 26.1788 151.122 38.8131 151.122 66C151.122 93.1869 143.945 105.839 131.653 105.839ZM264.419 42.4946C264.419 17.3193 248.438 1.94065 222.54 1.94065H184.033V130.077H210.956V81.2854H212.516L236.129 130.077H266.709L239.319 78.9096C255.112 73.6916 264.388 60.5999 264.388 42.4768L264.419 42.4946ZM222.727 58.5127H210.956V26.5474H222.709C230.609 26.5474 236.966 31.5834 236.966 42.4768C236.931 53.459 230.684 58.495 222.696 58.495L222.727 58.5127ZM349.559 42.4768C349.559 17.3016 333.578 1.92289 307.68 1.92289H269.2V130.077H296.11V81.2854H297.669L321.282 130.077H351.863L324.485 78.9096C340.284 73.6916 349.559 60.5999 349.559 42.4768V42.4768ZM307.867 58.495H296.11V26.5474H307.863C315.762 26.5474 322.119 31.5834 322.119 42.4768C322.102 53.459 315.855 58.495 307.867 58.495V58.495ZM354.371 130.077H381.281V1.92289H354.371V130.077ZM451.456 1.92289V76.8934L415.181 1.92289H388.824V130.077H415.274V55.3819L451.643 130.077H478V1.92289H451.456Z" fill="url(#paint0_linear)"/>
<path d="M16.0042 183.285H22.5074L24.7371 169.039H32.4171V163.028H25.6599L27.2207 153.175H34.7954V147.124H28.1497L30.4166 132.669H23.9133L21.6527 147.124H16.6978L18.9647 132.669H12.48L10.2132 147.124H2.304V153.17H9.28415L7.72337 163.023H0V169.033H6.81292L4.58324 183.279H11.0679L13.2604 169.033H18.2153L16.0042 183.285ZM15.744 153.193H20.6989L19.1381 163.046H14.1833L15.744 153.193ZM62.3011 132.171C58.835 132.11 55.4017 132.807 52.2737 134.205C49.3765 135.542 46.8527 137.493 44.9033 139.903C42.8131 142.535 41.2709 145.512 40.3573 148.678C39.2799 152.345 38.7546 156.136 38.7965 159.939V163.828C38.7639 166.604 39.1454 169.37 39.9299 172.047C40.5901 174.339 41.6921 176.5 43.1815 178.422C44.529 180.143 46.2816 181.551 48.3036 182.537C50.3961 183.53 52.7151 184.031 55.0608 183.998C57.2586 184.034 59.4366 183.603 61.4308 182.737C63.4251 181.872 65.1837 180.595 66.5746 179.002C67.985 177.367 69.0563 175.499 69.7333 173.496C70.4924 171.278 70.8687 168.962 70.8482 166.633C70.8606 164.4 70.5925 162.172 70.0492 159.997C69.5808 158.059 68.764 156.208 67.6337 154.526C66.6123 153.013 65.2328 151.739 63.6017 150.805C61.8939 149.865 59.94 149.389 57.9594 149.431C56.3188 149.408 54.6942 149.735 53.2089 150.387C51.8045 151.019 50.5526 151.913 49.5299 153.013C49.7382 151.219 50.22 149.463 50.9606 147.797C51.6086 146.34 52.5412 145.009 53.7106 143.873C54.8565 142.783 56.2432 141.94 57.7736 141.404C59.509 140.812 61.346 140.523 63.1929 140.552H63.7132V132.171H62.3011ZM57.0117 158.218C57.7615 158.715 58.3835 159.363 58.8327 160.113C59.3783 161.018 59.7731 161.995 60.0032 163.011C60.2861 164.227 60.4233 165.47 60.412 166.715C60.4224 167.941 60.2916 169.165 60.0218 170.366C59.804 171.378 59.4284 172.354 58.907 173.264C58.4817 174.014 57.8778 174.662 57.1418 175.159C56.4686 175.605 55.6627 175.843 54.8378 175.837C53.1862 175.837 51.8484 174.956 50.8244 173.194C49.8004 171.432 49.2925 168.768 49.3008 165.202V161.614C49.7174 160.51 50.4121 159.516 51.3261 158.716C52.242 157.933 53.4493 157.517 54.6892 157.557C55.5176 157.548 56.3286 157.779 57.0117 158.218V158.218ZM107 175.119H88.6175L95.5605 165.845C97.146 164.083 98.5685 162.399 99.8278 160.791C101.027 159.278 102.102 157.681 103.042 156.015C103.894 154.506 104.572 152.917 105.068 151.274C106.096 147.681 105.999 143.887 104.789 140.343C104.191 138.652 103.194 137.109 101.872 135.828C100.526 134.565 98.8971 133.596 97.1027 132.994C94.999 132.301 92.7798 131.965 90.5499 132.003C88.2026 131.968 85.8762 132.42 83.737 133.324C81.7778 134.165 80.0319 135.386 78.6149 136.906C77.1872 138.457 76.0898 140.249 75.3819 142.186C74.6152 144.265 74.2319 146.45 74.2484 148.649H84.7775C84.77 147.517 84.8821 146.387 85.1119 145.275C85.2971 144.329 85.6487 143.419 86.1525 142.58C86.5799 141.871 87.1778 141.263 87.899 140.807C88.6364 140.363 89.5002 140.139 90.3765 140.163C91.1043 140.143 91.8239 140.311 92.4565 140.649C93.0891 140.986 93.6102 141.48 93.9625 142.076C94.7884 143.351 95.2013 145.111 95.2013 147.356C95.1995 148.135 95.1123 148.912 94.9411 149.675C94.7351 150.558 94.4363 151.42 94.0493 152.248C93.5625 153.295 93.0039 154.311 92.377 155.291C91.6833 156.392 90.8162 157.615 89.7757 158.96L75.1465 176.347V183.302H107V175.119Z" fill="url(#paint1_linear)"/>
<defs>
<linearGradient id="paint0_linear" x1="239" y1="0" x2="239" y2="132" gradientUnits="userSpaceOnUse">
<stop stop-color="#CE68C4"/>
<stop offset="1" stop-color="#090108"/>
</linearGradient>
<linearGradient id="paint1_linear" x1="53.5" y1="132" x2="53.5" y2="184" gradientUnits="userSpaceOnUse">
<stop stop-color="#CE68C4"/>
<stop offset="1" stop-color="#090108"/>
</linearGradient>
</defs>
</svg>
