<svg id="レイヤー_1" data-name="レイヤー 1" xmlns="http://www.w3.org/2000/svg" viewBox="0 0 1466 403"><pattern id="diagonal-texture" patternUnits="userSpaceOnUse" width="6" height="6"><style>.diagonal-1{fill:#242424}</style><path d="M0 0h6v6H0z"/><path class="diagonal-1" d="M5 0h1v1H5zM4 1h1v1H4zM3 2h1v1H3zM2 3h1v1H2zM1 4h1v1H1zM0 5h1v1H0zM4.5.5H5V1h-.5zM5 1h.5v.5H5zM4 2h.5v.5H4zm-.5-.5H4V2h-.5zm-1 1H3V3h-.5zM3 3h.5v.5H3zM2 4h.5v.5H2zM1 5h.5v.5H1zM0 0h.5v.5H0z"/>/&gt;<path class="diagonal-1" d="M5.5 5.5H6V6h-.5zm-4-2H2V4h-.5zm-1 1H1V5H.5z"/></pattern><path d="M1283.23 98h10.49l3.6-24.58h12.41V63.1h-10.91l2.52-17h12.23V35.7h-10.73l3.66-24.94H1296l-3.65 24.94h-8l3.65-24.95h-10.43l-3.66 24.94h-12.77v10.44h11.27l-2.52 17h-12.47v10.34h11L1264.77 98h10.49l3.54-24.58h8zm-.42-51.92h8l-2.52 17h-8zM1358 9.86a36 36 0 0 0-16.19 3.51 33.5 33.5 0 0 0-11.9 9.83 45.09 45.09 0 0 0-7.34 15.14 70.56 70.56 0 0 0-2.57 19.42v6.72a51.48 51.48 0 0 0 1.83 14.15 33.66 33.66 0 0 0 5.25 11 24 24 0 0 0 8.27 7.1 24.52 24.52 0 0 0 29.5-6.11 29.09 29.09 0 0 0 5.1-9.5 37.79 37.79 0 0 0 1.8-11.84 49.18 49.18 0 0 0-1.29-11.45 30.29 30.29 0 0 0-3.9-9.44 20.14 20.14 0 0 0-6.51-6.42 17.2 17.2 0 0 0-9.11-2.37 17.44 17.44 0 0 0-7.67 1.65 18.5 18.5 0 0 0-5.93 4.53 32.6 32.6 0 0 1 2.31-9 21.89 21.89 0 0 1 4.44-6.77 18.11 18.11 0 0 1 6.57-4.26 24.36 24.36 0 0 1 8.75-1.47h.84V9.86zm-8.54 44.94a10 10 0 0 1 2.94 3.27 17.59 17.59 0 0 1 1.89 5 28.9 28.9 0 0 1 .66 6.39 29.47 29.47 0 0 1-.63 6.3 18.17 18.17 0 0 1-1.8 5 9.55 9.55 0 0 1-2.85 3.27 6.36 6.36 0 0 1-3.72 1.17q-4 0-6.47-4.56T1337 66.82V60.7a12.58 12.58 0 0 1 3.27-5 7.66 7.66 0 0 1 5.43-2 6.5 6.5 0 0 1 3.75 1.16zm66.6-44.17h-1.8l-31.84 13v14.16l16.58-6.41V98h17z" fill="url(#diagonal-texture)"/></svg>