<svg xmlns="http://www.w3.org/2000/svg" width="1466" height="403" viewBox="0 0 1466 403"><pattern id="diagonal-texture" patternUnits="userSpaceOnUse" width="6" height="6"><style>.diagonal-1{fill:#242424}</style><path d="M0 0h6v6H0z"/><path class="diagonal-1" d="M5 0h1v1H5zM4 1h1v1H4zM3 2h1v1H3zM2 3h1v1H2zM1 4h1v1H1zM0 5h1v1H0zM4.5.5H5V1h-.5zM5 1h.5v.5H5zM4 2h.5v.5H4zm-.5-.5H4V2h-.5zm-1 1H3V3h-.5zM3 3h.5v.5H3zM2 4h.5v.5H2zM1 5h.5v.5H1zM0 0h.5v.5H0z"/>/&gt;<path class="diagonal-1" d="M5.5 5.5H6V6h-.5zm-4-2H2V4h-.5zm-1 1H1V5H.5z"/></pattern><path class="a" d="M135.183 10.32c-64.878 0-104.3 52.559-104.3 148.028s39.419 148.028 104.3 148.028c41.883 0 72.269-22.789 87.462-62.825l-50.3-25.869c-8.418 20.326-20.326 29.975-36.956 29.975-24.842 0-42.294-26.485-42.294-89.31 0-61.182 16.014-89.31 42.294-89.31 16.63 0 28.538 9.855 36.34 29.975L223.672 75.2c-14.577-41.68-46.606-64.88-88.489-64.88zm248.154 236.311h-95.674v-232h-60.156v287.434h155.83zM478.758 10.32c-66.315 0-105.734 53.175-105.734 148.028s39.419 148.028 105.734 148.028c66.11 0 105.734-53.175 105.734-148.028S544.868 10.32 478.758 10.32zm-.205 58.719c27.511 0 43.526 28.333 43.526 89.31s-16.014 89.31-43.526 89.31-43.526-28.333-43.526-89.31 16.015-89.31 43.526-89.31zm305.429-54.407h-60.361v193.607c0 26.69-13.345 39.214-34.7 39.214s-34.7-12.524-34.7-39.214V14.632h-60.356v196.481c0 56.871 32.644 95.264 95.058 95.264s95.058-38.393 95.058-95.264zm15.332 0v287.433h86.641c71.242 0 110.457-56.255 110.457-143.717 0-87.667-39.214-143.717-110.457-143.717zm85.2 55.434c35.518 0 49.685 33.26 49.685 88.283 0 54.612-14.166 88.283-49.685 88.283h-25.045V70.065z" fill="url(#diagonal-texture)"/></svg>