<svg xmlns="http://www.w3.org/2000/svg" width="670" height="670" viewBox="0 0 670 670"><linearGradient x1="0%" x2="0%" y1="0%" y2="100%" id="a"><stop offset="0%" stop-color="#5da396"/><stop offset="100%" stop-color="#397d71"/></linearGradient><path class="ptn" d="M176.022 137.652c9.265 0 17.085 6.315 17.085 14.109v357.52c0 19.561-13.409 22.1-16.36 22.1v8.635h86.96v-8.124c-6.942 0-16.11-8.784-16.11-23.853V334.625c22.853 0 27.551 58.724 27.551 73.021h11.684V232.262h-11.684c0 38.922-11.365 64.48-27.45 64.48v-140.7l7.917-.09c41.081 0 51.849 119 51.849 119h11.811V129.985H176zm174.69-7.667l.029 7.667c9.259 0 17.082 6.315 17.082 14.109v357.52c0 19.561-13.413 22.1-16.364 22.1v8.635h86.96v-8.124c-6.938 0-16.139-8.784-16.139-23.853V334.625c22.882 0 27.58 58.724 27.58 73.021h11.695V232.262H449.86c0 38.922-11.361 64.48-27.442 64.48v-140.7l7.917-.09c41.073 0 51.847 119 51.847 119H494V129.985z" fill="url(#a)"/></svg>