<svg width="315" height="117" viewBox="0 0 315 117" fill="none" xmlns="http://www.w3.org/2000/svg">
<path d="M256.274 27.6086H260.043L261.337 19.9099H265.796V16.6775H261.875L262.781 11.3528H267.175V8.09544H263.32L264.635 0.283858H260.862L259.55 8.09544H256.676L257.988 0.280726H254.24L252.925 8.09229H248.336V11.3623H252.386L251.481 16.6869H247V19.9255H250.953L249.641 27.6086H253.41L254.682 19.9099H257.556L256.274 27.6086ZM256.122 11.3466H258.997L258.092 16.6712H255.217L256.122 11.3466ZM283.139 0.00196508C281.128 -0.0307607 279.136 0.345666 277.322 1.10135C275.641 1.82353 274.177 2.87782 273.046 4.18024C271.833 5.60268 270.938 7.21136 270.409 8.9223C269.778 10.9026 269.467 12.9499 269.485 15.0049V17.1097C269.467 18.6065 269.689 20.0981 270.143 21.5417C270.525 22.7806 271.165 23.9482 272.029 24.987C272.811 25.9171 273.827 26.6781 275 27.2109C276.76 27.9655 278.757 28.187 280.677 27.8404C282.597 27.4938 284.33 26.5988 285.6 25.2971C286.418 24.4135 287.039 23.4043 287.432 22.3216C287.873 21.1233 288.092 19.8714 288.08 18.6132C288.086 17.406 287.931 16.2023 287.616 15.0269C287.344 13.9792 286.87 12.9794 286.214 12.0701C285.622 11.2524 284.822 10.5644 283.876 10.0592C282.885 9.5513 281.751 9.29427 280.602 9.31696C279.65 9.30454 278.708 9.4813 277.846 9.83374C277.033 10.1756 276.308 10.6584 275.715 11.2526C275.836 10.2832 276.116 9.33398 276.545 8.43367C276.921 7.64658 277.463 6.92744 278.141 6.31323C278.807 5.72372 279.613 5.26832 280.501 4.97894C281.508 4.65898 282.574 4.50292 283.645 4.51852H283.947V0.00196508H283.139ZM280.07 14.0778C280.506 14.3467 280.866 14.6965 281.127 15.102C281.443 15.5908 281.672 16.1189 281.806 16.6681C281.97 17.3255 282.05 17.9967 282.043 18.6695C282.049 19.3325 281.973 19.994 281.817 20.6428C281.691 21.1896 281.472 21.7173 281.17 22.2089C280.924 22.6142 280.573 22.9647 280.146 23.233C279.755 23.4742 279.288 23.6024 278.809 23.5995C277.851 23.5995 277.076 23.1235 276.485 22.1713C275.893 21.2191 275.596 19.7763 275.593 17.8427V15.9257C275.836 15.3291 276.238 14.7919 276.768 14.3597C277.3 13.9365 278 13.7117 278.719 13.7333C279.2 13.7305 279.671 13.8573 280.067 14.0966L280.07 14.0778ZM304 0.24314H303.353L291.913 4.31493V8.75007L297.871 6.74233V27.6086H303.979L304 0.24314Z" fill="url(#paint0_linear)"/>
<path d="M34.0275 28C12.8612 28 0 43.8002 0 72.4999C0 101.2 12.8603 117 34.0275 117C47.6916 117 57.6049 110.149 62.5616 98.113L46.1514 90.3365C43.4051 96.4468 39.5202 99.3481 34.0947 99.3481C25.9901 99.3481 20.2964 91.3855 20.2964 72.4996C20.2964 54.1071 25.521 45.6514 34.0947 45.6514C39.5202 45.6514 43.4051 48.6139 45.9504 54.6624L62.8967 47.5041C58.1409 34.9743 47.6916 28 34.0275 28ZM114.987 99.0395H83.7735V29.296H64.1478V115.704H114.987V99.0395ZM146.117 28C124.482 28 111.623 43.9854 111.623 72.4999C111.623 101.014 124.482 117 146.117 117C167.686 117 180.613 101.014 180.613 72.4999C180.613 43.9854 167.686 28 146.117 28ZM146.051 45.652C155.026 45.652 160.251 54.1694 160.251 72.5C160.251 90.8311 155.026 99.3481 146.051 99.3481C137.075 99.3481 131.851 90.8311 131.851 72.5C131.851 54.1694 137.075 45.652 146.051 45.652ZM245.696 29.2963H226.003V87.498C226.003 95.5218 221.649 99.2861 214.682 99.2861C207.715 99.2861 203.361 95.5218 203.361 87.498V29.2963H183.671V88.3617C183.671 105.458 194.321 117 214.683 117C235.045 117 245.695 105.458 245.695 88.3617L245.696 29.2963ZM250.698 29.2963V115.704H278.964C302.206 115.704 315 98.7922 315 72.4999C315 46.1456 302.207 29.296 278.964 29.296L250.698 29.2963ZM278.494 45.9607C290.081 45.9607 294.703 55.9593 294.703 72.5C294.703 88.9176 290.081 99.0395 278.494 99.0395H270.323V45.9604L278.494 45.9607Z" fill="url(#paint1_linear)"/>
<defs>
<linearGradient id="paint0_linear" x1="275.5" y1="-1.25572e-10" x2="275.5" y2="28" gradientUnits="userSpaceOnUse">
<stop stop-color="#64FFE2"/>
<stop offset="1" stop-color="#5C736F"/>
</linearGradient>
<linearGradient id="paint1_linear" x1="157.5" y1="28" x2="157.5" y2="117" gradientUnits="userSpaceOnUse">
<stop stop-color="#00FFD0"/>
<stop offset="1" stop-color="#5C736F"/>
</linearGradient>
</defs>
</svg>
