<svg width="375" height="161" viewBox="0 0 375 161" fill="none" xmlns="http://www.w3.org/2000/svg">
<path d="M305.027 38.4549H309.509L311.047 27.7316H316.349V23.2294H311.687L312.764 15.8129H317.989V11.2758H313.405L314.969 0.395374H310.483L308.923 11.2758H305.505L307.065 0.391011H302.609L301.045 11.2714H295.589V15.826H300.404L299.328 23.2425H294V27.7534H298.7L297.14 38.4549H301.622L303.134 27.7316H306.552L305.027 38.4549ZM304.847 15.8042H308.265L307.189 23.2206H303.771L304.847 15.8042ZM336.971 0.00273708C334.58 -0.0428453 332.212 0.481463 330.054 1.53402C328.056 2.53992 326.315 4.00839 324.97 5.82248C323.528 7.80374 322.464 10.0444 321.834 12.4275C321.084 15.1857 320.715 18.0373 320.736 20.8997V23.8314C320.715 25.9162 320.978 27.9938 321.518 30.0045C321.973 31.7302 322.734 33.3565 323.761 34.8034C324.691 36.0989 325.899 37.1588 327.294 37.9009C329.386 38.9519 331.761 39.2605 334.044 38.7777C336.327 38.2949 338.387 37.0483 339.898 35.2353C340.87 34.0045 341.609 32.5989 342.076 31.0908C342.6 29.4217 342.86 27.678 342.846 25.9255C342.854 24.2441 342.669 22.5675 342.294 20.9303C341.971 19.4711 341.408 18.0785 340.628 16.8119C339.924 15.673 338.972 14.7147 337.847 14.0111C336.669 13.3036 335.321 12.9456 333.955 12.9772C332.823 12.9599 331.703 13.2061 330.678 13.697C329.711 14.1732 328.849 14.8457 328.144 15.6733C328.288 14.3231 328.62 13.0009 329.131 11.7469C329.578 10.6506 330.222 9.64893 331.028 8.79343C331.82 7.97233 332.778 7.33802 333.835 6.93495C335.032 6.4893 336.299 6.27193 337.573 6.29365H337.932V0.00273708H336.971ZM333.322 19.6084C333.84 19.9829 334.269 20.4702 334.579 21.035C334.955 21.7158 335.227 22.4514 335.386 23.2163C335.581 24.1319 335.676 25.0669 335.668 26.004C335.675 26.9274 335.585 27.8488 335.399 28.7525C335.249 29.5141 334.989 30.2491 334.63 30.9338C334.337 31.4984 333.92 31.9865 333.412 32.3603C332.948 32.6962 332.392 32.8748 331.823 32.8708C330.684 32.8708 329.762 32.2077 329.059 30.8814C328.355 29.5552 328.002 27.5455 327.999 24.8523V22.1823C328.287 21.3512 328.766 20.603 329.396 20.001C330.028 19.4116 330.861 19.0984 331.716 19.1285C332.288 19.1246 332.848 19.3013 333.318 19.6346L333.322 19.6084ZM361.776 0.33866H361.007L347.404 6.01008V12.1876L354.488 9.39111V38.4549H361.751L361.776 0.33866Z" fill="url(#paint0_linear)"/>
<path d="M40.5089 39C15.311 39 0 60.6587 0 99.9998C0 139.341 15.3099 161 40.5089 161C56.7757 161 68.5773 151.609 74.4781 135.11L54.9422 124.45C51.6727 132.826 47.0478 136.803 40.5889 136.803C30.9406 136.803 24.1624 125.888 24.1624 99.9994C24.1624 74.7873 30.3821 63.1963 40.5889 63.1963C47.0478 63.1963 51.6727 67.2573 54.7029 75.5484L74.877 65.7359C69.2154 48.5603 56.7757 39 40.5089 39V39ZM136.889 136.38H99.7303V40.7765H76.3664V159.223H136.889V136.38ZM173.949 39C148.193 39 132.884 60.9125 132.884 99.9998C132.884 139.087 148.193 161 173.949 161C199.626 161 215.015 139.087 215.015 99.9998C215.015 60.9125 199.626 39 173.949 39ZM173.87 63.1971C184.555 63.1971 190.775 74.8726 190.775 100C190.775 125.128 184.555 136.803 173.87 136.803C163.184 136.803 156.965 125.128 156.965 100C156.965 74.8726 163.185 63.1971 173.87 63.1971V63.1971ZM292.495 40.7769H269.051V120.559C269.051 131.558 263.868 136.718 255.574 136.718C247.28 136.718 242.097 131.558 242.097 120.559V40.7769H218.656V121.743C218.656 145.179 231.334 161 255.575 161C279.816 161 292.494 145.179 292.494 121.743L292.495 40.7769ZM298.45 40.7769V159.223H332.1C359.769 159.223 375 136.041 375 99.9998C375 63.8737 359.77 40.7765 332.1 40.7765L298.45 40.7769ZM331.54 63.6203C345.335 63.6203 350.837 77.3262 350.837 100C350.837 122.505 345.335 136.38 331.54 136.38H321.813V63.6199L331.54 63.6203Z" fill="url(#paint1_linear)"/>
<defs>
<linearGradient id="paint0_linear" x1="327.888" y1="0" x2="327.888" y2="39" gradientUnits="userSpaceOnUse">
<stop stop-color="#64FFE2"/>
<stop offset="1" stop-color="#5C736F"/>
</linearGradient>
<linearGradient id="paint1_linear" x1="187.5" y1="39" x2="187.5" y2="161" gradientUnits="userSpaceOnUse">
<stop stop-color="#00FFD0"/>
<stop offset="1" stop-color="#5C736F"/>
</linearGradient>
</defs>
</svg>
