<svg width="478" height="190" viewBox="0 0 478 190" fill="none" xmlns="http://www.w3.org/2000/svg">
<path d="M388.408 51.2732H395.484L397.912 36.9755H406.282V30.9725H398.924L400.623 21.0839H408.872V15.0344H401.635L404.104 0.527165H397.022L394.56 15.0344H389.164L391.626 0.521348H384.591L382.122 15.0285H373.509V21.1013H381.11L379.411 30.9899H371V37.0046H378.419L375.957 51.2732H383.033L385.42 36.9755H390.816L388.408 51.2732ZM388.125 21.0722H393.521L391.821 30.9609H386.425L388.125 21.0722ZM438.839 0.00364944C435.065 -0.0571271 431.326 0.641951 427.92 2.04536C424.765 3.38656 422.016 5.34451 419.893 7.76331C417.617 10.405 415.937 13.3926 414.943 16.57C413.758 20.2476 413.175 24.0497 413.209 27.8663V31.7752C413.176 34.5549 413.591 37.3251 414.443 40.006C415.162 42.3069 416.362 44.4753 417.984 46.4046C419.452 48.1319 421.36 49.545 423.562 50.5345C426.865 51.9359 430.615 52.3473 434.219 51.7036C437.823 51.0598 441.075 49.3977 443.46 46.9804C444.996 45.3394 446.162 43.4652 446.9 41.4544C447.726 39.229 448.136 36.9041 448.114 34.5673C448.127 32.3255 447.835 30.09 447.244 27.907C446.733 25.9614 445.844 24.1047 444.613 22.4159C443.501 20.8973 441.998 19.6195 440.222 18.6815C438.363 17.7382 436.235 17.2608 434.078 17.3029C432.291 17.2798 430.522 17.6081 428.904 18.2627C427.377 18.8976 426.016 19.7942 424.905 20.8977C425.131 19.0975 425.656 17.3345 426.463 15.6626C427.168 14.2007 428.184 12.8652 429.457 11.7246C430.707 10.6298 432.22 9.78402 433.889 9.2466C435.779 8.65241 437.779 8.36257 439.791 8.39153H440.357V0.00364944H438.839ZM433.079 26.1445C433.896 26.6438 434.573 27.2936 435.062 28.0466C435.657 28.9544 436.087 29.9352 436.337 30.955C436.645 32.1759 436.795 33.4226 436.782 34.672C436.794 35.9031 436.651 37.1318 436.357 38.3366C436.12 39.3522 435.711 40.3321 435.143 41.245C434.68 41.9978 434.023 42.6486 433.221 43.1471C432.488 43.595 431.61 43.833 430.712 43.8277C428.913 43.8277 427.459 42.9435 426.348 41.1752C425.237 39.4069 424.68 36.7273 424.675 33.1364V29.5764C425.129 28.4683 425.886 27.4707 426.881 26.668C427.878 25.8822 429.193 25.4646 430.543 25.5047C431.447 25.4994 432.33 25.7351 433.073 26.1794L433.079 26.1445ZM478 0.451546H476.786L455.31 8.01343V16.2501L466.493 12.5215V51.2732H477.959L478 0.451546Z" fill="url(#paint0_linear)"/>
<path d="M51.6353 58C19.5165 58 0 81.434 0 124C0 166.566 19.515 190 51.6353 190C72.3701 190 87.4132 179.839 94.9347 161.988L70.0329 150.454C65.8655 159.517 59.9702 163.819 51.7373 163.819C39.4389 163.819 30.799 152.01 30.799 123.999C30.799 96.7207 38.727 84.1796 51.7373 84.1796C59.9702 84.1796 65.8655 88.5735 69.728 97.5442L95.4432 86.9274C88.2266 68.344 72.3701 58 51.6353 58V58ZM174.488 163.362H127.123V59.9221H97.3417V188.077H174.488V163.362ZM221.727 58C188.897 58 169.382 81.7086 169.382 124C169.382 166.291 188.897 190 221.727 190C254.456 190 274.073 166.291 274.073 124C274.073 81.7086 254.456 58 221.727 58ZM221.626 84.1805C235.246 84.1805 243.174 96.813 243.174 124C243.174 151.187 235.246 163.82 221.626 163.82C208.006 163.82 200.078 151.187 200.078 124C200.078 96.813 208.006 84.1805 221.626 84.1805V84.1805ZM372.833 59.9225H342.951V146.244C342.951 158.144 336.344 163.728 325.772 163.728C315.2 163.728 308.593 158.144 308.593 146.244V59.9225H278.713V147.526C278.713 172.882 294.874 190 325.773 190C356.672 190 372.833 172.882 372.833 147.526L372.833 59.9225ZM380.424 59.9225V188.077H423.317C458.586 188.077 478 162.996 478 124C478 84.9126 458.587 59.9221 423.317 59.9221L380.424 59.9225ZM422.603 84.6384C440.187 84.6384 447.2 99.4677 447.2 124C447.2 148.35 440.187 163.362 422.603 163.362H410.204V84.6379L422.603 84.6384Z" fill="url(#paint1_linear)"/>
<defs>
<linearGradient id="paint0_linear" x1="424.5" y1="0" x2="424.5" y2="52" gradientUnits="userSpaceOnUse">
<stop stop-color="#624D8E"/>
<stop offset="1" stop-color="#0D0422"/>
</linearGradient>
<linearGradient id="paint1_linear" x1="239" y1="58" x2="239" y2="190" gradientUnits="userSpaceOnUse">
<stop stop-color="#624D8E"/>
<stop offset="1" stop-color="#0D0422"/>
</linearGradient>
</defs>
</svg>
